<svg xmlns="http://www.w3.org/2000/svg" width="40" height="40" viewBox="0 0 40 40">
  <g id="candy-busd" transform="translate(-243 -545)">
    <g id="Group_7" data-name="Group 7" transform="translate(243 545)">
      <path id="Polygon_1" data-name="Polygon 1" d="M11.954,1.132a1.052,1.052,0,0,1,1.688,0l0,.006a1.052,1.052,0,0,0,1.487.2l.007-.005a1.052,1.052,0,0,1,1.625.456l0,.006a1.052,1.052,0,0,0,1.377.6l.008,0a1.052,1.052,0,0,1,1.442.878v0a1.052,1.052,0,0,0,1.165.948h.007a1.052,1.052,0,0,1,1.152,1.235v0a1.052,1.052,0,0,0,.866,1.227h0a1.052,1.052,0,0,1,.777,1.5h0a1.052,1.052,0,0,0,.5,1.416h0a1.052,1.052,0,0,1,.344,1.654h0a1.052,1.052,0,0,0,.1,1.5h0a1.052,1.052,0,0,1-.115,1.686h0a1.052,1.052,0,0,0-.306,1.472h0a1.052,1.052,0,0,1-.566,1.592h0a1.052,1.052,0,0,0-.691,1.334h0a1.052,1.052,0,0,1-.974,1.38h-.006a1.052,1.052,0,0,0-1.025,1.1v0a1.052,1.052,0,0,1-1.31,1.066l-.007,0a1.052,1.052,0,0,0-1.283.78v0a1.052,1.052,0,0,1-1.548.673l-.008,0a1.052,1.052,0,0,0-1.445.4l0,.006a1.052,1.052,0,0,1-1.672.23l-.006-.006a1.052,1.052,0,0,0-1.5,0l-.006.006a1.052,1.052,0,0,1-1.672-.23l0-.006a1.052,1.052,0,0,0-1.445-.4l-.008,0a1.052,1.052,0,0,1-1.548-.673v0a1.052,1.052,0,0,0-1.283-.78l-.007,0a1.052,1.052,0,0,1-1.31-1.066v0a1.052,1.052,0,0,0-1.025-1.1H3.733a1.052,1.052,0,0,1-.974-1.38h0a1.052,1.052,0,0,0-.691-1.334h0A1.052,1.052,0,0,1,1.5,15.917h0a1.052,1.052,0,0,0-.306-1.472h0a1.052,1.052,0,0,1-.115-1.686h0a1.052,1.052,0,0,0,.1-1.5h0A1.052,1.052,0,0,1,1.524,9.6h0a1.052,1.052,0,0,0,.5-1.416h0a1.052,1.052,0,0,1,.777-1.5h0a1.052,1.052,0,0,0,.866-1.227v0A1.052,1.052,0,0,1,4.829,4.223h.007A1.052,1.052,0,0,0,6,3.275v0a1.052,1.052,0,0,1,1.442-.878l.008,0a1.052,1.052,0,0,0,1.377-.6l0-.006a1.052,1.052,0,0,1,1.625-.456l.007.005a1.052,1.052,0,0,0,1.487-.2Z" transform="translate(0 0)" fill="#f0e"/>
      <g id="ada-bnb" transform="translate(2.268 2.257)">
        <circle id="Ellipse_1" data-name="Ellipse 1" cx="10.513" cy="10.513" r="10.513" transform="translate(0)" fill="#f0b90b"/>
        <path id="Path_9" data-name="Path 9" d="M59.508,16.429,57.9,18.049l-1.62-1.62,1.62-1.62Zm3.921-3.921,2.77,2.77,1.62-1.62L65.049,10.9l-1.62-1.62L59.05,13.659l1.62,1.62Zm5.529,2.3-1.608,1.62,1.62,1.62,1.608-1.62Zm-5.529,5.54-2.77-2.77L59.05,19.2l4.379,4.379,4.39-4.39L66.2,17.58Zm0-2.3,1.62-1.62-1.62-1.62-1.62,1.62Z" transform="translate(-52.916 -5.916)" fill="#fffdfa"/>
        <circle id="Ellipse_2" data-name="Ellipse 2" cx="9.969" cy="9.969" r="9.969" transform="translate(0.544 0.544)" fill="none" stroke="#191326" stroke-width="3" opacity="0.1"/>
      </g>
      <g id="Group_19" data-name="Group 19" transform="translate(2.244 2.209)">
        <circle id="Ellipse_18" data-name="Ellipse 18" cx="10.537" cy="10.537" r="10.537" transform="translate(0)" fill="#f0b90b"/>
        <path id="Path_79" data-name="Path 79" d="M25.061,10.078l4.51-4.51,1.8,1.8-4.51,4.51Zm0,5.389L32.272,8.26l1.8,1.8-7.207,7.207Zm9.9-4.507L27.76,18.168l1.8,1.8,7.207-7.207Zm-12.6,1.81,1.8-1.8,1.8,1.8-1.8,1.8Z" transform="translate(-19.03 -2.23)" fill="#fffdfa" fill-rule="evenodd"/>
        <g id="Group_16" data-name="Group 16" opacity="0.1">
          <path id="Path_80" data-name="Path 80" d="M27.337,19.984a9.447,9.447,0,1,0-9.447-9.447A9.447,9.447,0,0,0,27.337,19.984Zm0,1.09A10.537,10.537,0,1,0,16.8,10.537,10.537,10.537,0,0,0,27.337,21.074Z" transform="translate(-16.8)" fill="#191326" fill-rule="evenodd"/>
        </g>
      </g>
    </g>
    <g id="Group_8" data-name="Group 8" transform="translate(254.71 556.813)">
      <path id="Polygon_3" data-name="Polygon 3" d="M13.212,1.253a1.164,1.164,0,0,1,1.867,0l0,.006a1.164,1.164,0,0,0,1.645.226l.006,0a1.164,1.164,0,0,1,1.8.5l0,0a1.164,1.164,0,0,0,1.523.662l.007,0a1.164,1.164,0,0,1,1.6.97v0A1.164,1.164,0,0,0,22.946,4.67h.006a1.164,1.164,0,0,1,1.275,1.365h0a1.164,1.164,0,0,0,.958,1.357h0a1.164,1.164,0,0,1,.859,1.659h0a1.164,1.164,0,0,0,.557,1.566h0a1.164,1.164,0,0,1,.38,1.829h0a1.164,1.164,0,0,0,.113,1.658h0a1.164,1.164,0,0,1-.127,1.864h0a1.164,1.164,0,0,0-.338,1.627h0a1.164,1.164,0,0,1-.625,1.761h0a1.164,1.164,0,0,0-.764,1.475h0a1.164,1.164,0,0,1-1.077,1.526h0a1.164,1.164,0,0,0-1.134,1.214v0a1.164,1.164,0,0,1-1.448,1.179l-.006,0a1.164,1.164,0,0,0-1.419.863v0a1.164,1.164,0,0,1-1.712.744l-.006,0a1.164,1.164,0,0,0-1.6.448l0,.005a1.164,1.164,0,0,1-1.849.254l-.005-.005a1.164,1.164,0,0,0-1.66,0l-.005.005a1.164,1.164,0,0,1-1.849-.254l0-.005a1.164,1.164,0,0,0-1.6-.448l-.006,0a1.164,1.164,0,0,1-1.712-.744v0a1.164,1.164,0,0,0-1.419-.863l-.006,0A1.164,1.164,0,0,1,5.265,23.58v0a1.164,1.164,0,0,0-1.134-1.214h0A1.164,1.164,0,0,1,3.05,20.837h0a1.164,1.164,0,0,0-.765-1.475h0A1.164,1.164,0,0,1,1.657,17.6h0a1.164,1.164,0,0,0-.338-1.627h0a1.164,1.164,0,0,1-.127-1.864h0A1.164,1.164,0,0,0,1.3,12.449h0a1.164,1.164,0,0,1,.38-1.829h0a1.164,1.164,0,0,0,.557-1.566h0A1.164,1.164,0,0,1,3.1,7.394h0a1.164,1.164,0,0,0,.958-1.357h0A1.164,1.164,0,0,1,5.338,4.669h.006A1.164,1.164,0,0,0,6.632,3.621v0a1.164,1.164,0,0,1,1.6-.97l.007,0a1.164,1.164,0,0,0,1.523-.662l0,0a1.164,1.164,0,0,1,1.8-.5l.006,0a1.164,1.164,0,0,0,1.645-.226Z" transform="translate(0)" fill="#00edff"/>
      <g id="Group_32" data-name="Group 32" transform="translate(2.539 2.487)">
        <g id="Group_34" data-name="Group 34">
          <circle id="Ellipse_22" data-name="Ellipse 22" cx="11.606" cy="11.606" r="11.606" transform="translate(0 0)" fill="#00ff90"/>
          <g id="Group_31" data-name="Group 31" transform="translate(0)" opacity="0.2">
            <path id="Path_149" data-name="Path 149" d="M49.406,39.855A10.849,10.849,0,1,0,38.557,29.006,10.849,10.849,0,0,0,49.406,39.855Zm0,.757A11.606,11.606,0,1,0,37.8,29.006,11.606,11.606,0,0,0,49.406,40.612Z" transform="translate(-37.8 -17.4)" fill="#191326" fill-rule="evenodd"/>
          </g>
          <g id="Group_111" data-name="Group 111" transform="translate(6.254 5.143)">
            <g id="Group_29" data-name="Group 29">
              <g id="Group_26" data-name="Group 26" transform="translate(0.938 3.842)">
                <path id="Path_19" data-name="Path 19" d="M326.928,245.279a.569.569,0,0,1-.569-.569V238.4a.569.569,0,0,1,1.137,0v6.307A.569.569,0,0,1,326.928,245.279Z" transform="translate(-326.359 -237.835)" fill="#fc478c"/>
              </g>
              <g id="Group_27" data-name="Group 27" transform="translate(6.202 7.679)">
                <path id="Path_20" data-name="Path 20" d="M348.952,259.247a.711.711,0,0,1-.711-.711v-3.825a.711.711,0,0,1,1.422,0v3.826A.711.711,0,0,1,348.952,259.247Z" transform="translate(-348.241 -254)" fill="#fc478c"/>
              </g>
              <path id="Path_21" data-name="Path 21" d="M328.71,222.275a5.358,5.358,0,1,0,4.3,6.231A5.348,5.348,0,0,0,328.71,222.275Zm-1.288,7.1a1.849,1.849,0,1,1,1.386-.3,1.854,1.854,0,0,1-1.386.3Z" transform="translate(-322.406 -222.188)" fill="#fc478c"/>
              <path id="Path_22" data-name="Path 22" d="M326.311,235.059a4.155,4.155,0,0,1,1.051-5.781,3.27,3.27,0,0,1,4.549.827,2.563,2.563,0,0,1-.648,3.563,1.98,1.98,0,0,1-1.492.322,2.01,2.01,0,0,1-.573-.2,1.831,1.831,0,0,1-.422-3.342,1.754,1.754,0,0,0-.208.121,2.085,2.085,0,0,0-.527,2.9,2.538,2.538,0,0,0,3.531.642,3.109,3.109,0,0,0,.786-4.319,3.812,3.812,0,0,0-5.3-.965,4.7,4.7,0,0,0-1.188,6.536,5.783,5.783,0,0,0,1.129,1.213,5.307,5.307,0,0,0,3.193.722A5.254,5.254,0,0,1,326.311,235.059Z" transform="translate(-324.406 -226.737)" fill="#dd6"/>
              <g id="Group_28" data-name="Group 28" transform="translate(8.726 4.591)">
                <path id="Path_23" data-name="Path 23" d="M359.228,248.36a.5.5,0,0,1-.5-.5v-6.307a.5.5,0,1,1,1,0v6.306a.5.5,0,0,1-.5.5Z" transform="translate(-358.729 -241.036)" fill="#fc478c"/>
              </g>
              <path id="Path_24" data-name="Path 24" d="M326.178,237.136a5.359,5.359,0,1,0,8.683-6.27C334.455,233.177,332.811,237.968,326.178,237.136Z" transform="translate(-325.283 -228.807)" fill="#414042" opacity="0.1"/>
              <path id="Path_25" data-name="Path 25" d="M332.179,224.809c.417.627-.894,1.307-2.2,2.177s-2.121,1.6-2.538.975.306-1.842,1.615-2.712S331.762,224.182,332.179,224.809Z" transform="translate(-326.154 -223.908)" fill="#fff" opacity="0.3"/>
              <path id="Path_26" data-name="Path 26" d="M326.626,242.968a.8.8,0,1,1-.741-.853A.8.8,0,0,1,326.626,242.968Z" transform="translate(-324.405 -237.329)" fill="#fff" opacity="0.3"/>
            </g>
          </g>
        </g>
      </g>
    </g>
  </g>
</svg>
