<svg xmlns="http://www.w3.org/2000/svg" width="40" height="40" viewBox="0 0 40 40">
  <g id="candy-bnb" transform="translate(-243 -545)">
    <g id="Group_7" data-name="Group 7" transform="translate(243 545)">
      <path id="Polygon_1" data-name="Polygon 1" d="M11.954,1.132a1.052,1.052,0,0,1,1.688,0l0,.006a1.052,1.052,0,0,0,1.487.2l.007-.005a1.052,1.052,0,0,1,1.625.456l0,.006a1.052,1.052,0,0,0,1.377.6l.008,0a1.052,1.052,0,0,1,1.442.878v0a1.052,1.052,0,0,0,1.165.948h.007a1.052,1.052,0,0,1,1.152,1.235v0a1.052,1.052,0,0,0,.866,1.227h0a1.052,1.052,0,0,1,.777,1.5h0a1.052,1.052,0,0,0,.5,1.416h0a1.052,1.052,0,0,1,.344,1.654h0a1.052,1.052,0,0,0,.1,1.5h0a1.052,1.052,0,0,1-.115,1.686h0a1.052,1.052,0,0,0-.306,1.472h0a1.052,1.052,0,0,1-.566,1.592h0a1.052,1.052,0,0,0-.691,1.334h0a1.052,1.052,0,0,1-.974,1.38h-.006a1.052,1.052,0,0,0-1.025,1.1v0a1.052,1.052,0,0,1-1.31,1.066l-.007,0a1.052,1.052,0,0,0-1.283.78v0a1.052,1.052,0,0,1-1.548.673l-.008,0a1.052,1.052,0,0,0-1.445.4l0,.006a1.052,1.052,0,0,1-1.672.23l-.006-.006a1.052,1.052,0,0,0-1.5,0l-.006.006a1.052,1.052,0,0,1-1.672-.23l0-.006a1.052,1.052,0,0,0-1.445-.4l-.008,0a1.052,1.052,0,0,1-1.548-.673v0a1.052,1.052,0,0,0-1.283-.78l-.007,0a1.052,1.052,0,0,1-1.31-1.066v0a1.052,1.052,0,0,0-1.025-1.1H3.733a1.052,1.052,0,0,1-.974-1.38h0a1.052,1.052,0,0,0-.691-1.334h0A1.052,1.052,0,0,1,1.5,15.917h0a1.052,1.052,0,0,0-.306-1.472h0a1.052,1.052,0,0,1-.115-1.686h0a1.052,1.052,0,0,0,.1-1.5h0A1.052,1.052,0,0,1,1.524,9.6h0a1.052,1.052,0,0,0,.5-1.416h0a1.052,1.052,0,0,1,.777-1.5h0a1.052,1.052,0,0,0,.866-1.227v0A1.052,1.052,0,0,1,4.829,4.223h.007A1.052,1.052,0,0,0,6,3.275v0a1.052,1.052,0,0,1,1.442-.878l.008,0a1.052,1.052,0,0,0,1.377-.6l0-.006a1.052,1.052,0,0,1,1.625-.456l.007.005a1.052,1.052,0,0,0,1.487-.2Z" transform="translate(0 0)" fill="#f0e"/>
      <g id="ada-bnb" transform="translate(2.268 2.257)">
        <circle id="Ellipse_1" data-name="Ellipse 1" cx="10.513" cy="10.513" r="10.513" transform="translate(0)" fill="#f0b90b"/>
        <path id="Path_9" data-name="Path 9" d="M59.508,16.429,57.9,18.049l-1.62-1.62,1.62-1.62Zm3.921-3.921,2.77,2.77,1.62-1.62L65.049,10.9l-1.62-1.62L59.05,13.659l1.62,1.62Zm5.529,2.3-1.609,1.62,1.62,1.62,1.608-1.62Zm-5.529,5.54-2.77-2.77L59.05,19.2l4.379,4.379,4.39-4.39L66.2,17.58Zm0-2.3,1.62-1.62-1.62-1.62-1.62,1.62Z" transform="translate(-52.916 -5.916)" fill="#fffdfa"/>
        <circle id="Ellipse_2" data-name="Ellipse 2" cx="9.969" cy="9.969" r="9.969" transform="translate(0.544 0.544)" fill="none" stroke="#191326" stroke-width="3" opacity="0.1"/>
      </g>
      <g id="Group_35" data-name="Group 35" transform="translate(2.309 2.257)">
        <ellipse id="Ellipse_21" data-name="Ellipse 21" cx="10.489" cy="10.489" rx="10.489" ry="10.489" fill="#f0b90b"/>
        <path id="Path_146" data-name="Path 146" d="M25.568,12.655,23.974,14.26l-1.606-1.606,1.606-1.606Zm3.886-3.886L32.2,11.514l1.606-1.606L31.06,7.174,29.454,5.568,27.849,7.174,25.114,9.909l1.606,1.606Zm5.481,2.281-1.594,1.606,1.605,1.606,1.594-1.606Zm-5.481,5.492-2.746-2.746L25.114,15.4l2.746,2.746,1.594,1.594,1.606-1.606,2.746-2.746L32.2,13.795Zm0-2.281,1.606-1.606-1.606-1.606-1.605,1.606Z" transform="translate(-18.965 -2.166)" fill="#fffdfa"/>
        <g id="Group_30" data-name="Group 30" transform="translate(0)" opacity="0.1">
          <path id="Path_147" data-name="Path 147" d="M27.289,19.893a9.4,9.4,0,1,0-9.4-9.4A9.4,9.4,0,0,0,27.289,19.893Zm0,1.085A10.489,10.489,0,1,0,16.8,10.489,10.489,10.489,0,0,0,27.289,20.978Z" transform="translate(-16.8)" fill="#191326" fill-rule="evenodd"/>
        </g>
      </g>
    </g>
    <g id="Group_8" data-name="Group 8" transform="translate(254.71 556.813)">
      <path id="Polygon_3" data-name="Polygon 3" d="M13.212,1.253a1.164,1.164,0,0,1,1.867,0l0,.006a1.164,1.164,0,0,0,1.645.226l.006,0a1.164,1.164,0,0,1,1.8.5l0,0a1.164,1.164,0,0,0,1.523.662l.007,0a1.164,1.164,0,0,1,1.6.97v0A1.164,1.164,0,0,0,22.946,4.67h.006a1.164,1.164,0,0,1,1.275,1.365h0a1.164,1.164,0,0,0,.958,1.357h0a1.164,1.164,0,0,1,.859,1.659h0a1.164,1.164,0,0,0,.557,1.566h0a1.164,1.164,0,0,1,.38,1.829h0a1.164,1.164,0,0,0,.113,1.658h0a1.164,1.164,0,0,1-.127,1.864h0a1.164,1.164,0,0,0-.338,1.627h0a1.164,1.164,0,0,1-.625,1.761h0a1.164,1.164,0,0,0-.764,1.475h0a1.164,1.164,0,0,1-1.077,1.526h0a1.164,1.164,0,0,0-1.134,1.214v0a1.164,1.164,0,0,1-1.448,1.179l-.006,0a1.164,1.164,0,0,0-1.419.863v0a1.164,1.164,0,0,1-1.712.744l-.006,0a1.164,1.164,0,0,0-1.6.448l0,.005a1.164,1.164,0,0,1-1.849.254l-.005-.005a1.164,1.164,0,0,0-1.66,0l-.005.005a1.164,1.164,0,0,1-1.849-.254l0-.005a1.164,1.164,0,0,0-1.6-.448l-.006,0a1.164,1.164,0,0,1-1.712-.744v0a1.164,1.164,0,0,0-1.419-.863l-.006,0A1.164,1.164,0,0,1,5.265,23.58v0a1.164,1.164,0,0,0-1.134-1.214h0A1.164,1.164,0,0,1,3.05,20.837h0a1.164,1.164,0,0,0-.765-1.475h0A1.164,1.164,0,0,1,1.657,17.6h0a1.164,1.164,0,0,0-.338-1.627h0a1.164,1.164,0,0,1-.127-1.864h0A1.164,1.164,0,0,0,1.3,12.449h0a1.164,1.164,0,0,1,.38-1.829h0a1.164,1.164,0,0,0,.557-1.566h0A1.164,1.164,0,0,1,3.1,7.394h0a1.164,1.164,0,0,0,.958-1.357h0A1.164,1.164,0,0,1,5.338,4.669h.006A1.164,1.164,0,0,0,6.632,3.621v0a1.164,1.164,0,0,1,1.6-.97l.007,0a1.164,1.164,0,0,0,1.523-.662l0,0a1.164,1.164,0,0,1,1.8-.5l.006,0a1.164,1.164,0,0,0,1.645-.226Z" transform="translate(0)" fill="#00edff"/>
      <g id="Group_32" data-name="Group 32" transform="translate(2.539 2.487)">
        <g id="Group_34" data-name="Group 34">
          <circle id="Ellipse_22" data-name="Ellipse 22" cx="11.606" cy="11.606" r="11.606" transform="translate(0 0)" fill="#00ff90"/>
          <g id="Group_31" data-name="Group 31" transform="translate(0)" opacity="0.2">
            <path id="Path_149" data-name="Path 149" d="M49.406,39.855A10.849,10.849,0,1,0,38.557,29.006,10.849,10.849,0,0,0,49.406,39.855Zm0,.757A11.606,11.606,0,1,0,37.8,29.006,11.606,11.606,0,0,0,49.406,40.612Z" transform="translate(-37.8 -17.4)" fill="#191326" fill-rule="evenodd"/>
          </g>
          <g id="Group_111" data-name="Group 111" transform="translate(6.254 5.143)">
            <g id="Group_29" data-name="Group 29">
              <g id="Group_26" data-name="Group 26" transform="translate(0.96 3.625)">
                <path id="Path_19" data-name="Path 19" d="M326.941,245.457a.582.582,0,0,1-.582-.582v-6.458a.582.582,0,0,1,1.165,0v6.458A.582.582,0,0,1,326.941,245.457Z" transform="translate(-326.359 -237.835)" fill="#fc478c"/>
              </g>
              <g id="Group_27" data-name="Group 27" transform="translate(6.179 7.554)">
                <path id="Path_20" data-name="Path 20" d="M348.969,259.373a.728.728,0,0,1-.728-.728v-3.917a.728.728,0,0,1,1.456,0v3.918A.728.728,0,0,1,348.969,259.373Z" transform="translate(-348.241 -254)" fill="#fc478c"/>
              </g>
              <path id="Path_21" data-name="Path 21" d="M328.71,222.275a5.332,5.332,0,1,0,4.3,6.2A5.346,5.346,0,0,0,328.71,222.275Zm-1.288,7.061a1.848,1.848,0,1,1,1.386-.3,1.846,1.846,0,0,1-1.386.3Z" transform="translate(-322.406 -222.188)" fill="#fc478c"/>
              <path id="Path_22" data-name="Path 22" d="M326.341,235.224a4.254,4.254,0,0,1,1.076-5.92,3.348,3.348,0,0,1,4.658.847,2.625,2.625,0,0,1-.663,3.648,2.027,2.027,0,0,1-1.528.33,2.058,2.058,0,0,1-.587-.2,1.875,1.875,0,0,1-.432-3.422,1.792,1.792,0,0,0-.213.124,2.135,2.135,0,0,0-.54,2.97,2.6,2.6,0,0,0,3.616.658,3.183,3.183,0,0,0,.8-4.423,3.9,3.9,0,0,0-5.432-.988,4.81,4.81,0,0,0-1.217,6.693,5.922,5.922,0,0,0,1.156,1.242,5.435,5.435,0,0,0,3.269.74A5.38,5.38,0,0,1,326.341,235.224Z" transform="translate(-324.391 -226.703)" fill="#dd6"/>
              <g id="Group_28" data-name="Group 28" transform="translate(8.678 4.391)">
                <path id="Path_23" data-name="Path 23" d="M359.239,248.535a.51.51,0,0,1-.51-.51v-6.458a.51.51,0,1,1,1.019,0v6.457a.51.51,0,0,1-.509.51Z" transform="translate(-358.729 -241.036)" fill="#fc478c"/>
              </g>
              <path id="Path_24" data-name="Path 24" d="M326.178,237.062a5.354,5.354,0,0,0,9.343-.815,5.286,5.286,0,0,0-.679-5.382C334.437,233.149,332.8,237.884,326.178,237.062Z" transform="translate(-325.262 -228.758)" fill="#414042" opacity="0.1"/>
              <path id="Path_25" data-name="Path 25" d="M332.3,224.818c.427.642-.915,1.338-2.256,2.229s-2.171,1.641-2.6,1,.313-1.886,1.654-2.777S331.868,224.175,332.3,224.818Z" transform="translate(-326.126 -223.895)" fill="#fff" opacity="0.3"/>
              <path id="Path_26" data-name="Path 26" d="M326.664,242.988a.819.819,0,1,1-.759-.873A.819.819,0,0,1,326.664,242.988Z" transform="translate(-324.391 -237.345)" fill="#fff" opacity="0.3"/>
            </g>
          </g>
        </g>
      </g>
    </g>
  </g>
</svg>
