<svg xmlns="http://www.w3.org/2000/svg" width="64" height="64" viewBox="0 0 64 64">
  <g id="bnb-busd" transform="translate(-243 -545)">
    <g id="Group_7" data-name="Group 7" transform="translate(243 545)">
      <path id="Polygon_1" data-name="Polygon 1" d="M19.126,1.812a1.684,1.684,0,0,1,2.7,0l.008.01a1.684,1.684,0,0,0,2.379.327l.011-.009a1.684,1.684,0,0,1,2.6.729l0,.009a1.684,1.684,0,0,0,2.2.957l.012,0a1.684,1.684,0,0,1,2.308,1.4v.006a1.684,1.684,0,0,0,1.864,1.516h.011a1.684,1.684,0,0,1,1.844,1.975v0A1.684,1.684,0,0,0,36.457,10.7h.007a1.684,1.684,0,0,1,1.243,2.4h0a1.684,1.684,0,0,0,.805,2.266h0a1.684,1.684,0,0,1,.55,2.647h0a1.684,1.684,0,0,0,.164,2.4h0a1.684,1.684,0,0,1-.184,2.7h0a1.684,1.684,0,0,0-.489,2.355h0a1.684,1.684,0,0,1-.9,2.547l0,0a1.684,1.684,0,0,0-1.106,2.135h0a1.684,1.684,0,0,1-1.558,2.208h-.009a1.684,1.684,0,0,0-1.64,1.757v0a1.684,1.684,0,0,1-2.1,1.706l-.012,0a1.684,1.684,0,0,0-2.053,1.248l0,.008a1.684,1.684,0,0,1-2.477,1.077l-.012-.007a1.684,1.684,0,0,0-2.312.648l-.006.01a1.684,1.684,0,0,1-2.675.368l-.01-.01a1.684,1.684,0,0,0-2.4,0l-.01.01a1.684,1.684,0,0,1-2.675-.368l-.006-.01a1.684,1.684,0,0,0-2.312-.648l-.012.007a1.684,1.684,0,0,1-2.477-1.077l0-.008a1.684,1.684,0,0,0-2.053-1.248l-.012,0a1.684,1.684,0,0,1-2.1-1.706v0a1.684,1.684,0,0,0-1.64-1.757H5.973a1.684,1.684,0,0,1-1.558-2.208h0a1.684,1.684,0,0,0-1.106-2.135l0,0a1.684,1.684,0,0,1-.9-2.547h0a1.684,1.684,0,0,0-.489-2.355h0a1.684,1.684,0,0,1-.184-2.7h0a1.684,1.684,0,0,0,.164-2.4h0a1.684,1.684,0,0,1,.55-2.647h0A1.684,1.684,0,0,0,3.247,13.1h0A1.684,1.684,0,0,1,4.49,10.7H4.5A1.684,1.684,0,0,0,5.883,8.734v0A1.684,1.684,0,0,1,7.726,6.756h.011A1.684,1.684,0,0,0,9.6,5.241V5.235a1.684,1.684,0,0,1,2.308-1.4l.012,0a1.684,1.684,0,0,0,2.2-.957l0-.009a1.684,1.684,0,0,1,2.6-.729l.011.009a1.684,1.684,0,0,0,2.379-.327Z" transform="translate(0 0)" fill="#f0e"/>
      <g id="ada-bnb" transform="translate(3.629 3.611)">
        <circle id="Ellipse_1" data-name="Ellipse 1" cx="16.821" cy="16.821" r="16.821" transform="translate(0)" fill="#f0b90b"/>
        <path id="Path_9" data-name="Path 9" d="M61.445,20.718,58.872,23.31,56.28,20.718l2.592-2.592Zm6.273-6.273,4.433,4.433,2.592-2.592L70.31,11.872,67.718,9.28l-7.006,7.006L63.3,18.877Zm8.847,3.681-2.574,2.592,2.592,2.592,2.574-2.592Zm-8.847,8.865-4.432-4.433L60.713,25.15l7.006,7.006,7.024-7.024L72.15,22.559Zm0-3.681,2.592-2.592-2.592-2.592-2.592,2.592Z" transform="translate(-50.897 -3.897)" fill="#fffdfa"/>
        <circle id="Ellipse_2" data-name="Ellipse 2" cx="15.951" cy="15.951" r="15.951" transform="translate(0.87 0.87)" fill="none" stroke="#191326" stroke-width="3" opacity="0.1"/>
      </g>
    </g>
    <g id="Group_8" data-name="Group 8" transform="translate(261.736 563.902)">
      <path id="Polygon_3" data-name="Polygon 3" d="M21.139,2a1.862,1.862,0,0,1,2.987,0l.007.009a1.862,1.862,0,0,0,2.631.362l.01-.007a1.862,1.862,0,0,1,2.876.806l0,.008A1.862,1.862,0,0,0,32.089,4.24l.011,0a1.862,1.862,0,0,1,2.552,1.553v.005a1.862,1.862,0,0,0,2.061,1.677h.009a1.862,1.862,0,0,1,2.039,2.184v0A1.862,1.862,0,0,0,40.3,11.829H40.3a1.862,1.862,0,0,1,1.375,2.654h0a1.862,1.862,0,0,0,.89,2.506h0a1.862,1.862,0,0,1,.608,2.927h0a1.862,1.862,0,0,0,.181,2.653h0a1.862,1.862,0,0,1-.2,2.983h0a1.862,1.862,0,0,0-.541,2.6h0a1.862,1.862,0,0,1-1,2.817h0a1.862,1.862,0,0,0-1.223,2.361h0a1.862,1.862,0,0,1-1.723,2.442h-.008a1.862,1.862,0,0,0-1.814,1.943v0a1.862,1.862,0,0,1-2.318,1.886l-.01,0a1.862,1.862,0,0,0-2.27,1.381l0,.007a1.862,1.862,0,0,1-2.74,1.191l-.01-.006a1.862,1.862,0,0,0-2.558.717l0,.009a1.862,1.862,0,0,1-2.959.407l-.008-.008a1.862,1.862,0,0,0-2.656,0l-.008.008a1.862,1.862,0,0,1-2.959-.407l0-.009a1.862,1.862,0,0,0-2.558-.717l-.01.006A1.862,1.862,0,0,1,13.024,41l0-.007a1.862,1.862,0,0,0-2.27-1.381l-.01,0a1.862,1.862,0,0,1-2.318-1.886v0a1.862,1.862,0,0,0-1.814-1.943H6.6A1.862,1.862,0,0,1,4.88,33.34h0a1.862,1.862,0,0,0-1.223-2.361h0a1.862,1.862,0,0,1-1-2.817h0a1.862,1.862,0,0,0-.541-2.6h0a1.862,1.862,0,0,1-.2-2.983h0a1.862,1.862,0,0,0,.181-2.653h0A1.862,1.862,0,0,1,2.7,16.991h0a1.862,1.862,0,0,0,.89-2.506h0A1.862,1.862,0,0,1,4.963,11.83h.006A1.862,1.862,0,0,0,6.5,9.657v0A1.862,1.862,0,0,1,8.541,7.47H8.55a1.862,1.862,0,0,0,2.061-1.677V5.789a1.862,1.862,0,0,1,2.552-1.553l.011,0a1.862,1.862,0,0,0,2.437-1.058l0-.008a1.862,1.862,0,0,1,2.876-.806l.01.007a1.862,1.862,0,0,0,2.631-.362Z" transform="translate(0)" fill="#00edff"/>
      <g id="busd-bnb" transform="translate(-77.938 -25.021)">
        <circle id="Ellipse_10" data-name="Ellipse 10" cx="18.57" cy="18.57" r="18.57" transform="translate(82 29)" fill="#f0b90b"/>
        <path id="Path_31" data-name="Path 31" d="M100.644,50.831l7.911-7.911,3.154,3.154L103.8,53.985l-3.154-3.154Zm.006,9.453,12.643-12.642,3.154,3.154L103.8,63.438Zm17.371-7.905L105.378,65.021l3.154,3.154,12.642-12.643-3.154-3.154Zm-22.1,3.175L99.074,52.4l3.154,3.154-3.154,3.154Z" transform="translate(-7.978 -7.978)" fill="#fffdfa" fill-rule="evenodd"/>
        <circle id="Ellipse_11" data-name="Ellipse 11" cx="17.965" cy="17.965" r="17.965" transform="translate(82.605 29.605)" fill="none" stroke="#191326" stroke-width="2.837" opacity="0.2"/>
      </g>
    </g>
  </g>
</svg>
