<svg xmlns="http://www.w3.org/2000/svg" width="64" height="64" viewBox="0 0 64 64">
  <g id="bunny-question" transform="translate(-624 -206)">
    <g id="Ellipse_16" data-name="Ellipse 16" transform="translate(624 206)" fill="#ebebeb" stroke="#d4bcff" stroke-width="1" stroke-dasharray="3">
      <circle cx="32" cy="32" r="32" stroke="none"/>
      <circle cx="32" cy="32" r="31.5" fill="none"/>
    </g>
    <g id="Group_133" data-name="Group 133" transform="translate(656.133 211.831) rotate(45)">
      <g id="Group_119" data-name="Group 119" transform="translate(27.41 0)">
        <path id="Path_100" data-name="Path 100" d="M1.493,13.344s7.62.39,9.365-.138,4.05-2.2,3.3-3.488-3.615-.844-3.412-2.6S11.2,4,10.113,3.787C7.8,3.334,6.72,3.881,6.55,2.748S6.656-1,4.03.406.311,10.339.311,10.339-.912,12.04,1.493,13.344Z" transform="translate(0)" fill="#d4bcff"/>
      </g>
      <g id="Group_120" data-name="Group 120" transform="translate(30.953 9.724)">
        <path id="Path_101" data-name="Path 101" d="M0,2.49S7.072.82,8.49.154s1.655,1,.895,1.531S6.116,3.679,0,2.49Z" transform="translate(0 0)" fill="#ddcdfb"/>
      </g>
      <g id="Group_121" data-name="Group 121" transform="translate(32.505 5.637)">
        <path id="Path_102" data-name="Path 102" d="M.836,5.182S5.86,2.818,5.216.733,1.3,1.541.674,2.892-.527,5.239.836,5.182Z" transform="translate(0 0)" fill="#ddcdfb"/>
      </g>
      <g id="Group_122" data-name="Group 122" transform="translate(29.678 3.197)">
        <path id="Path_103" data-name="Path 103" d="M4.443,1.793A20.8,20.8,0,0,0,1.471,6.121C.815,7.809.395,8.073.063,6.944S.726.025,2.738,0C3.806-.012,4.309.441,4.443,1.793Z" transform="translate(0 0)" fill="#ddcdfb"/>
      </g>
      <g id="Group_123" data-name="Group 123" transform="translate(0 27.054)">
        <path id="Path_104" data-name="Path 104" d="M12.675,0S5.041-.068,3.317.532-.636,2.9.17,4.155s3.645.7,3.517,2.46-.328,3.131.766,3.3c2.334.356,3.387-.236,3.6.888s.048,3.751,2.614,2.236S13.977,2.959,13.977,2.959,15.128,1.209,12.675,0Z" transform="translate(0 0)" fill="#d4bcff"/>
      </g>
      <g id="Group_124" data-name="Group 124" transform="translate(0.937 27.983)">
        <path id="Path_105" data-name="Path 105" d="M9.732.289s-7,1.963-8.385,2.688S-.348,2.042.389,1.485,3.573-.643,9.732.289Z" transform="translate(0 0)" fill="#ddcdfb"/>
      </g>
      <g id="Group_125" data-name="Group 125" transform="translate(4.078 29.758)">
        <path id="Path_106" data-name="Path 106" d="M4.265.009S-.657,2.579.074,4.637s3.875-.971,4.448-2.35S5.624-.105,4.265.009Z" transform="translate(0 0)" fill="#ddcdfb"/>
      </g>
      <g id="Group_126" data-name="Group 126" transform="translate(7.805 29.629)">
        <path id="Path_107" data-name="Path 107" d="M0,5.994A20.8,20.8,0,0,0,2.79,1.547c.584-1.716.994-2,1.372-.88S3.787,7.607,1.78,7.715C.712,7.772.19,7.34,0,5.994Z" transform="translate(0 0)" fill="#ddcdfb"/>
      </g>
      <g id="Group_128" data-name="Group 128" transform="translate(9.548 9.016)">
        <g id="Group_127" data-name="Group 127" transform="translate(0 0)">
          <path id="Path_108" data-name="Path 108" d="M19.651,2.706c.7.721,2.025,1.361,2.407,2.264,1.69,4.008.291,9.472-3.791,13.432-4.051,3.928-9.5,5.17-13.449,3.42-.926-.413-1.538-1.459-2.265-2.206a7.1,7.1,0,0,1-2.19-2.955C-.752,12.773.731,7.846,4.493,4.2S13.2-.776,17.047.439C18.33.844,18.7,1.726,19.651,2.706Z" fill="#d4bcff"/>
        </g>
      </g>
      <g id="Group_129" data-name="Group 129" transform="translate(9.612 9.021)">
        <path id="Path_109" data-name="Path 109" d="M1.708,4.8A2.563,2.563,0,0,0,3.135,1.469,2.545,2.545,0,0,0,1.557,0,13.22,13.22,0,0,0,0,4.859,2.538,2.538,0,0,0,1.708,4.8Z" transform="translate(0 7.958)" fill="#ddcdfb"/>
        <path id="Path_110" data-name="Path 110" d="M1.611.184A2.563,2.563,0,1,0,4.943,1.61,2.563,2.563,0,0,0,1.611.184Z" transform="translate(6.306 2.068)" fill="#ddcdfb"/>
        <path id="Path_111" data-name="Path 111" d="M1.611.184A2.563,2.563,0,1,0,4.943,1.611,2.563,2.563,0,0,0,1.611.184Z" transform="translate(5.017 10.354)" fill="#ddcdfb"/>
        <path id="Path_112" data-name="Path 112" d="M1.611.184A2.563,2.563,0,1,0,4.943,1.61,2.563,2.563,0,0,0,1.611.184Z" transform="translate(13.609 7.066)" fill="#ddcdfb"/>
        <path id="Path_113" data-name="Path 113" d="M.184,2.4A2.552,2.552,0,0,0,5.1,1.693,3.525,3.525,0,0,0,3.373.434,9.764,9.764,0,0,0,.448,0,2.559,2.559,0,0,0,.184,2.4Z" transform="translate(13.61 0)" fill="#ddcdfb"/>
        <path id="Path_114" data-name="Path 114" d="M1.706,0c-.029.01-.06.014-.085.026a2.552,2.552,0,0,0,.6,4.906A9.881,9.881,0,0,0,1.706,0Z" transform="translate(20.376 5.192)" fill="#ddcdfb"/>
        <path id="Path_115" data-name="Path 115" d="M1.627.184A2.552,2.552,0,0,0,2.314,5.1c.313-.261.623-.532.922-.822A15.993,15.993,0,0,0,5.1,2.111a2.6,2.6,0,0,0-.144-.5A2.563,2.563,0,0,0,1.627.184Z" transform="translate(14.964 14.117)" fill="#ddcdfb"/>
        <path id="Path_116" data-name="Path 116" d="M4.944,1.614A2.563,2.563,0,1,0,.441,4,12.07,12.07,0,0,0,5,3.328a2.539,2.539,0,0,0-.056-1.714Z" transform="translate(7.558 18.576)" fill="#ddcdfb"/>
        <path id="Path_117" data-name="Path 117" d="M3.427,1.61A2.563,2.563,0,0,0,.1.184C.061.2.033.219,0,.234A.161.161,0,0,0,.011.278,7.074,7.074,0,0,0,2.2,3.232c.281.289.544.623.817.948a2.552,2.552,0,0,0,.407-2.57Z" transform="translate(0.285 16.378)" fill="#ddcdfb"/>
      </g>
      <g id="Group_130" data-name="Group 130" transform="translate(9.549 9.017)" opacity="0.2">
        <path id="Path_118" data-name="Path 118" d="M21.405,5.372c0-.441-.027-.874-.066-1.3-.547-.48-1.242-.905-1.686-1.361C18.7,1.724,18.329.843,17.046.438,13.2-.778,8.244.556,4.492,4.2S-.753,12.772.36,16.66a4.794,4.794,0,0,0,1.312,2.065,14.327,14.327,0,0,0,5.344,1.037A14.39,14.39,0,0,0,21.405,5.373Z" transform="translate(0 0)" fill="#fff"/>
      </g>
      <g id="Group_132" data-name="Group 132" transform="translate(10.529 10.477)" opacity="0.5">
        <g id="Group_131" data-name="Group 131" transform="translate(0 0)">
          <path id="Path_119" data-name="Path 119" d="M15.632.471s-.4.069-1.063.211c-.333.066-.733.176-1.186.277-.452.12-.953.267-1.49.438a17.67,17.67,0,0,0-1.686.62L9.765,2.2l-.439.213a9.541,9.541,0,0,0-.887.452A16.8,16.8,0,0,0,6.7,3.955c-.271.216-.538.439-.818.648-.255.234-.5.484-.758.723a7.529,7.529,0,0,0-.7.776l-.34.394c-.107.137-.2.285-.3.425l-.3.425-.153.209-.077.1-.021.028L3.231,7.7c.008-.015-.025.043.016-.032l-.009.015L3.2,7.742c-.175.315-.4.665-.533.936A12.558,12.558,0,0,0,1.9,10.407a13.205,13.205,0,0,0-.491,1.686,14.62,14.62,0,0,0-.25,1.5c-.046.456-.075.863-.085,1.2-.014.675.018,1.078.018,1.078A5.072,5.072,0,0,1,.6,14.881a9.25,9.25,0,0,1-.6-2.9,10.275,10.275,0,0,1,.12-2.015A8.666,8.666,0,0,1,.359,8.878,9.386,9.386,0,0,1,.733,7.737c.14-.4.3-.688.457-1.044.222-.425.42-.726.646-1.095.111-.176.215-.358.335-.53l.4-.493a9.217,9.217,0,0,1,.838-.956c.313-.288.62-.585.94-.862.34-.255.686-.5,1.021-.738A12.482,12.482,0,0,1,7.532.913,8.217,8.217,0,0,1,8.625.541,7.857,7.857,0,0,1,9.685.275,12.993,12.993,0,0,1,11.648.02c.306-.007.6-.026.873-.019l.784.038A11.239,11.239,0,0,1,14.564.2a7.773,7.773,0,0,1,.794.182C15.539.435,15.632.471,15.632.471Z" fill="#fff"/>
        </g>
      </g>
    </g>
    <text id="_" data-name="?" transform="translate(652.461 226.831)" fill="#d4bcff" font-size="16" font-family="Roboto-Black, Roboto" font-weight="800"><tspan x="0" y="0">?</tspan></text>
  </g>
</svg>
