<svg xmlns="http://www.w3.org/2000/svg" width="72" height="72" viewBox="0 0 72 72">
  <g id="bunny-placeholder" transform="translate(-624 -206)">
    <g id="Ellipse_16" data-name="Ellipse 16" transform="translate(624 206)" fill="#ebebeb" stroke="#d4bcff" stroke-width="1" stroke-dasharray="3">
      <circle cx="36" cy="36" r="36" stroke="none"/>
      <circle cx="36" cy="36" r="35.5" fill="none"/>
    </g>
    <g id="Group_133" data-name="Group 133" transform="translate(660.15 212.56) rotate(45)">
      <g id="Group_119" data-name="Group 119" transform="translate(30.837 0)">
        <path id="Path_100" data-name="Path 100" d="M1.679,15.012s8.573.439,10.536-.155,4.556-2.48,3.71-3.924S11.859,9.984,12.087,8s.515-3.5-.71-3.743C8.77,3.751,7.56,4.366,7.369,3.091S7.488-1.127,4.534.457.35,11.632.35,11.632-1.026,13.545,1.679,15.012Z" transform="translate(0)" fill="#d4bcff"/>
      </g>
      <g id="Group_120" data-name="Group 120" transform="translate(34.822 10.939)">
        <path id="Path_101" data-name="Path 101" d="M0,2.8S7.956.922,9.551.174,11.412,1.3,10.558,1.9,6.88,4.138,0,2.8Z" transform="translate(0 0)" fill="#ddcdfb"/>
      </g>
      <g id="Group_121" data-name="Group 121" transform="translate(36.568 6.341)">
        <path id="Path_102" data-name="Path 102" d="M.941,5.83S6.593,3.171,5.867.824s-4.4.909-5.109,2.429S-.592,5.894.941,5.83Z" transform="translate(0 0)" fill="#ddcdfb"/>
      </g>
      <g id="Group_122" data-name="Group 122" transform="translate(33.388 3.596)">
        <path id="Path_103" data-name="Path 103" d="M5,2.018A23.4,23.4,0,0,0,1.655,6.886c-.738,1.9-1.211,2.2-1.584.925S.816.028,3.081,0C4.282-.014,4.848.5,5,2.018Z" transform="translate(0 0)" fill="#ddcdfb"/>
      </g>
      <g id="Group_123" data-name="Group 123" transform="translate(0 30.436)">
        <path id="Path_104" data-name="Path 104" d="M14.259,0S5.671-.077,3.732.6-.715,3.264.191,4.674s4.1.784,3.956,2.768-.369,3.523.861,3.71c2.626.4,3.81-.266,4.054,1s.055,4.22,2.941,2.515S15.724,3.329,15.724,3.329,17.019,1.36,14.259,0Z" transform="translate(0 0)" fill="#d4bcff"/>
      </g>
      <g id="Group_124" data-name="Group 124" transform="translate(1.054 31.481)">
        <path id="Path_105" data-name="Path 105" d="M10.948.326S3.078,2.534,1.515,3.35-.392,2.3.438,1.67,4.019-.723,10.948.326Z" transform="translate(0 0)" fill="#ddcdfb"/>
      </g>
      <g id="Group_125" data-name="Group 125" transform="translate(4.587 33.477)">
        <path id="Path_106" data-name="Path 106" d="M4.8.01S-.74,2.9.083,5.217s4.359-1.092,5-2.643S6.327-.118,4.8.01Z" transform="translate(0 0)" fill="#ddcdfb"/>
      </g>
      <g id="Group_126" data-name="Group 126" transform="translate(8.78 33.333)">
        <path id="Path_107" data-name="Path 107" d="M0,6.743a23.4,23.4,0,0,0,3.139-5C3.8-.19,4.257-.505,4.683.749S4.261,8.558,2,8.679C.8,8.743.213,8.257,0,6.743Z" transform="translate(0 0)" fill="#ddcdfb"/>
      </g>
      <g id="Group_128" data-name="Group 128" transform="translate(10.741 10.143)">
        <g id="Group_127" data-name="Group 127" transform="translate(0 0)">
          <path id="Path_108" data-name="Path 108" d="M22.107,3.045c.788.812,2.279,1.531,2.707,2.547,1.9,4.509.327,10.656-4.265,15.111-4.557,4.419-10.69,5.817-15.13,3.847-1.041-.464-1.73-1.641-2.548-2.482C1.811,20.974.819,20.186.407,18.744-.846,14.37.822,8.827,5.055,4.721S14.85-.873,19.178.494C20.622.95,21.041,1.941,22.107,3.045Z" fill="#d4bcff"/>
        </g>
      </g>
      <g id="Group_129" data-name="Group 129" transform="translate(10.814 10.149)">
        <path id="Path_109" data-name="Path 109" d="M1.922,5.4a2.883,2.883,0,0,0,1.6-3.749A2.863,2.863,0,0,0,1.751,0,14.873,14.873,0,0,0,0,5.466,2.856,2.856,0,0,0,1.922,5.4Z" transform="translate(0 8.953)" fill="#ddcdfb"/>
        <path id="Path_110" data-name="Path 110" d="M1.812.207a2.883,2.883,0,1,0,3.749,1.6A2.883,2.883,0,0,0,1.812.207Z" transform="translate(7.094 2.327)" fill="#ddcdfb"/>
        <path id="Path_111" data-name="Path 111" d="M1.812.207a2.883,2.883,0,1,0,3.749,1.6A2.883,2.883,0,0,0,1.812.207Z" transform="translate(5.645 11.648)" fill="#ddcdfb"/>
        <path id="Path_112" data-name="Path 112" d="M1.812.207a2.883,2.883,0,1,0,3.749,1.6A2.883,2.883,0,0,0,1.812.207Z" transform="translate(15.31 7.949)" fill="#ddcdfb"/>
        <path id="Path_113" data-name="Path 113" d="M.207,2.7A2.871,2.871,0,0,0,5.741,1.9,3.966,3.966,0,0,0,3.795.488,10.985,10.985,0,0,0,.5,0a2.879,2.879,0,0,0-.3,2.7Z" transform="translate(15.311 0)" fill="#ddcdfb"/>
        <path id="Path_114" data-name="Path 114" d="M1.919,0c-.033.011-.067.015-.1.029a2.871,2.871,0,0,0,.67,5.519A11.116,11.116,0,0,0,1.919,0Z" transform="translate(22.923 5.841)" fill="#ddcdfb"/>
        <path id="Path_115" data-name="Path 115" d="M1.831.207A2.871,2.871,0,0,0,2.6,5.742c.352-.294.7-.6,1.037-.924a17.992,17.992,0,0,0,2.1-2.442,2.924,2.924,0,0,0-.162-.564A2.883,2.883,0,0,0,1.831.207Z" transform="translate(16.835 15.882)" fill="#ddcdfb"/>
        <path id="Path_116" data-name="Path 116" d="M5.562,1.816A2.883,2.883,0,1,0,.5,4.5a13.579,13.579,0,0,0,5.129-.757,2.857,2.857,0,0,0-.063-1.928Z" transform="translate(8.502 20.898)" fill="#ddcdfb"/>
        <path id="Path_117" data-name="Path 117" d="M3.856,1.811A2.883,2.883,0,0,0,.107.207C.069.223.037.247,0,.263a.181.181,0,0,0,.012.05c.412,1.443,1.4,2.231,2.466,3.324.316.325.612.7.919,1.066a2.871,2.871,0,0,0,.458-2.891Z" transform="translate(0.321 18.425)" fill="#ddcdfb"/>
      </g>
      <g id="Group_130" data-name="Group 130" transform="translate(10.743 10.145)" opacity="0.2">
        <path id="Path_118" data-name="Path 118" d="M24.081,6.044c0-.5-.031-.984-.074-1.467-.615-.54-1.4-1.018-1.9-1.531C21.039,1.94,20.62.948,19.177.493,14.849-.875,9.275.626,5.053,4.72S-.847,14.369.405,18.742a5.393,5.393,0,0,0,1.476,2.324,16.118,16.118,0,0,0,6.012,1.167A16.189,16.189,0,0,0,24.081,6.044Z" transform="translate(0 0)" fill="#fff"/>
      </g>
      <g id="Group_132" data-name="Group 132" transform="translate(11.845 11.786)" opacity="0.5">
        <g id="Group_131" data-name="Group 131" transform="translate(0 0)">
          <path id="Path_119" data-name="Path 119" d="M17.586.53s-.447.078-1.2.237c-.375.074-.825.2-1.334.312-.508.135-1.072.3-1.676.493a19.879,19.879,0,0,0-1.9.7l-.5.2-.494.239a10.733,10.733,0,0,0-1,.508A18.9,18.9,0,0,0,7.542,4.45c-.3.243-.6.494-.92.729-.287.263-.567.545-.853.813a8.471,8.471,0,0,0-.791.873L4.6,7.308c-.121.154-.225.321-.339.479l-.334.479L3.751,8.5l-.086.117-.024.032-.006.008c.009-.017-.028.048.018-.036l-.01.017L3.6,8.71c-.2.354-.451.748-.6,1.053a14.128,14.128,0,0,0-.861,1.946,14.856,14.856,0,0,0-.552,1.9,16.448,16.448,0,0,0-.281,1.689c-.052.513-.084.97-.1,1.35-.016.76.02,1.213.02,1.213a5.706,5.706,0,0,1-.554-1.116,10.407,10.407,0,0,1-.67-3.262,11.559,11.559,0,0,1,.135-2.267A9.749,9.749,0,0,1,.4,9.988,10.559,10.559,0,0,1,.824,8.7c.158-.455.339-.774.514-1.174.25-.479.473-.816.726-1.232.125-.2.242-.4.377-.6l.448-.555a10.369,10.369,0,0,1,.943-1.076c.352-.324.7-.658,1.057-.969.383-.287.771-.557,1.148-.83A14.042,14.042,0,0,1,8.474,1.028,9.244,9.244,0,0,1,9.7.608,8.839,8.839,0,0,1,10.9.31,14.617,14.617,0,0,1,13.1.023c.345-.008.67-.029.982-.021l.882.043a12.644,12.644,0,0,1,1.415.183,8.744,8.744,0,0,1,.893.2C17.482.49,17.586.53,17.586.53Z" fill="#fff"/>
        </g>
      </g>
    </g>
    <text id="_" data-name="?" transform="translate(656.019 229.56)" fill="#d4bcff" font-size="18" font-family="Roboto-Black, Roboto" font-weight="800"><tspan x="0" y="0">?</tspan></text>
  </g>
</svg>
