<svg xmlns="http://www.w3.org/2000/svg" width="56.285" height="56.285" viewBox="0 0 56.285 56.285">
  <g id="no-prize" transform="translate(-0.84 -0.34)">
    <g id="Group_304" data-name="Group 304" opacity="0.7">
      <g id="Group_303" data-name="Group 303">
        <path id="Path_435" data-name="Path 435" d="M23.405,15.228a1.015,1.015,0,0,0-1.765.021,1.1,1.1,0,0,0,.418,1.475l3.471,1.948-.168-.286-1.956-3.158Zm-5.055-1.96a4.732,4.732,0,0,1,8.228-.1l1.982,3.2,4.03,6.873H26.327a1.941,1.941,0,0,1-.952-.251L20.3,20.142a5.11,5.11,0,0,1-1.95-6.875Z" fill="#ebbcff" fill-rule="evenodd"/>
        <path id="Path_436" data-name="Path 436" d="M35.1,15.228a1.015,1.015,0,0,1,1.765.021,1.1,1.1,0,0,1-.418,1.475l-3.471,1.948.168-.286Zm5.055-1.96a4.732,4.732,0,0,0-8.228-.1l-1.982,3.2-4.03,6.873H32.18a1.94,1.94,0,0,0,.952-.251l5.075-2.848a5.11,5.11,0,0,0,1.95-6.875ZM16.07,30.811H42.344V40.882a2.56,2.56,0,0,1-2.56,2.56H18.63a2.56,2.56,0,0,1-2.56-2.56ZM44.9,28.251V40.882A5.12,5.12,0,0,1,39.784,46H18.63a5.12,5.12,0,0,1-5.12-5.12V28.251H44.9Z" fill="#ebbcff" fill-rule="evenodd"/>
      </g>
      <path id="Path_437" data-name="Path 437" d="M31.856,30.434H26.624V45.989h5.232Z" fill="#ebbcff"/>
      <path id="Path_438" data-name="Path 438" d="M13.541,33.436v5.458H44.935V33.436Z" fill="#ebbcff"/>
      <path id="Path_439" data-name="Path 439" d="M15.289,23.38h27.9a1.28,1.28,0,0,1,1.28,1.28v1.871a1.28,1.28,0,0,1-1.28,1.28h-27.9a1.28,1.28,0,0,1-1.28-1.28V24.66a1.28,1.28,0,0,1,1.28-1.28Zm27.9-2.56a3.84,3.84,0,0,1,3.84,3.84v1.871a3.84,3.84,0,0,1-3.84,3.84h-27.9a3.84,3.84,0,0,1-3.84-3.84V24.66a3.84,3.84,0,0,1,3.84-3.84Z" fill="#ebbcff" fill-rule="evenodd"/>
      <path id="Path_440" data-name="Path 440" d="M31.856,20.882H26.624v9.551h5.232Z" fill="#ebbcff"/>
    </g>
    <path id="Path_441" data-name="Path 441" d="M48.882,8.583,47.6,7.377A28.143,28.143,0,0,0,7.876,47.1q.579.656,1.206,1.283t1.283,1.206A28.144,28.144,0,0,0,50.088,9.865q-.579-.656-1.206-1.283ZM45.1,9.871A24.624,24.624,0,0,0,10.371,44.605ZM12.86,47.094,47.594,12.36A24.624,24.624,0,0,1,12.86,47.094Z" fill="#ebbcff" fill-rule="evenodd"/>
  </g>
</svg>
