<svg xmlns="http://www.w3.org/2000/svg" width="112" height="112" viewBox="0 0 112 112">
  <g id="pool-finished-sash" transform="translate(0 -23)">
    <path id="Path_442" data-name="Path 442" d="M45.255,23,112,89.745V135L0,23Z" fill="#b400ff"/>
    <path id="Path_443" data-name="Path 443" d="M40.035,49.52l7.286-7.286,5.295,5.295-1.4,1.4L47.74,45.459l-1.527,1.527,3.055,3.055-1.426,1.425-3.055-3.055-2.93,2.93-1.822-1.822Zm12.746.324,1.37-1.37,1.98,1.98-1.37,1.37ZM46.717,56.2l4.016-4.016-.792-.792,1.505-1.188L53.9,52.66l-5.363,5.363L46.715,56.2Zm3.322,3.322L55.4,54.16l1.7,1.7-.407.52a4.72,4.72,0,0,1,1.222.43,4.337,4.337,0,0,1,1.245.883A2.85,2.85,0,0,1,60.175,59.7a3.055,3.055,0,0,1-1.064,2.014l-3.44,3.44-1.822-1.822,3.292-3.292a1.258,1.258,0,0,0,.453-.837,1.371,1.371,0,0,0-.5-.883,2.082,2.082,0,0,0-.735-.464,2.347,2.347,0,0,0-.85-.17l-3.654,3.654-1.822-1.822Zm13.64,1.22,1.37-1.37,1.98,1.98-1.37,1.37ZM57.616,67.1l4.016-4.016-.792-.792L62.345,61.1,64.8,63.56l-5.363,5.363L57.615,67.1Zm5.2,5.426a11.009,11.009,0,0,1-1.13-1.312,7.046,7.046,0,0,1-.7-1.143l1.392-1.392a5.813,5.813,0,0,0,.656,1.177,7.722,7.722,0,0,0,.837,1.018,5.343,5.343,0,0,0,.747.656.34.34,0,0,0,.475-.023c.15-.15.143-.385-.023-.7L64.4,69.483a4.631,4.631,0,0,1-.52-1.72,1.905,1.905,0,0,1,.656-1.4,1.973,1.973,0,0,1,1.8-.622,4.675,4.675,0,0,1,2.33,1.47,8.846,8.846,0,0,1,.928,1.086,7.189,7.189,0,0,1,.634,1l-1.37,1.37a3.966,3.966,0,0,0-.51-.94,6.365,6.365,0,0,0-.668-.8,5.33,5.33,0,0,0-.77-.656c-.22-.158-.392-.174-.52-.045s-.14.35.01.622l.645,1.188a5.646,5.646,0,0,1,.566,1.4,1.7,1.7,0,0,1-.023,1.018,2.515,2.515,0,0,1-.622.916,1.984,1.984,0,0,1-1.867.6,4.709,4.709,0,0,1-2.3-1.437Zm3.875,3.65,7.625-7.625,1.822,1.822-2.66,2.66a3.466,3.466,0,0,1,1.12.4,4.455,4.455,0,0,1,1.12.826,2.566,2.566,0,0,1,.011,4.152l-3.4,3.393L70.5,79.978l3.28-3.28a1.284,1.284,0,0,0,.464-.85,1.365,1.365,0,0,0-.5-.882,2.082,2.082,0,0,0-.735-.464,2.36,2.36,0,0,0-.849-.17l-3.654,3.654-1.822-1.822Zm9.762,9.99a4.882,4.882,0,0,1-1.56-2.942,3.637,3.637,0,0,1,1.256-2.953,4.075,4.075,0,0,1,2.738-1.335,3.856,3.856,0,0,1,2.862,1.346,3.941,3.941,0,0,1,1.324,2.636,3.252,3.252,0,0,1-1.063,2.466l-.962.962-3.8-3.8a1.469,1.469,0,0,0-.17,1.324,4.515,4.515,0,0,0,1.052,1.46,7.32,7.32,0,0,0,.973.815,5.321,5.321,0,0,0,.973.566L78.888,87.9a4.681,4.681,0,0,1-1.177-.656,9.818,9.818,0,0,1-1.256-1.075ZM78.3,81.493l2.217,2.218.238-.238a1.159,1.159,0,0,0,.385-.86,1.573,1.573,0,0,0-.566-1.04,1.761,1.761,0,0,0-1.188-.645,1.592,1.592,0,0,0-1.086.566Zm4.06,10.577a4.577,4.577,0,0,1-1.086-1.584,2.471,2.471,0,0,1-.034-1.663,4.833,4.833,0,0,1,1.245-1.833,5.1,5.1,0,0,1,1.97-1.3,3.338,3.338,0,0,1,1.935-.08,3.761,3.761,0,0,1,1.72,1.018,3.958,3.958,0,0,1,.656.837,3.329,3.329,0,0,1,.362.9l2.512-2.512,1.822,1.822-7.625,7.626-1.573-1.573.35-.554a3.29,3.29,0,0,1-1.165-.3,4.234,4.234,0,0,1-1.086-.815Zm1.844-.8a1.984,1.984,0,0,0,1.425.61L87.8,89.705a1.968,1.968,0,0,0-.634-1.335,1.42,1.42,0,0,0-1.324-.44,3.111,3.111,0,0,0-1.516.928,1.917,1.917,0,0,0-.735,1.3,1.845,1.845,0,0,0,.61,1.11Z" fill="#fff"/>
  </g>
</svg>
