<svg xmlns="http://www.w3.org/2000/svg" width="55.623" height="46.404" viewBox="0 0 55.623 46.404">
  <g id="present-alt" transform="translate(-4.29 -10.251)">
    <g id="Group_311" data-name="Group 311">
      <path id="Path_459" data-name="Path 459" d="M25.994,20.559a1.324,1.324,0,0,0-2.382-.04,1.66,1.66,0,0,0,.6,2.119l4.493,2.74-.708-1.311-2-3.508ZM20.4,18.416c1.825-3.582,6.585-3.5,8.664.146l2.025,3.552,4.087,7.574H28.919a1.841,1.841,0,0,1-.961-.277l-5.389-3.286a6.029,6.029,0,0,1-2.17-7.709Z" fill="#37ddff" fill-rule="evenodd"/>
      <path id="Path_460" data-name="Path 460" d="M38.038,20.559a1.324,1.324,0,0,1,2.382-.04,1.66,1.66,0,0,1-.6,2.119l-4.493,2.74.708-1.311,2-3.508Zm5.6-2.143c-1.825-3.582-6.585-3.5-8.664.146l-2.025,3.552-4.087,7.574h6.256a1.84,1.84,0,0,0,.961-.277l5.389-3.286a6.029,6.029,0,0,0,2.17-7.709ZM17.585,38.4H46.347V51.535a2.56,2.56,0,0,1-2.56,2.56H20.145a2.56,2.56,0,0,1-2.56-2.56V38.4Zm31.322-2.56V51.535a5.12,5.12,0,0,1-5.12,5.12H20.145a5.12,5.12,0,0,1-5.12-5.12V35.84H48.907Z" fill="#37ddff" fill-rule="evenodd"/>
    </g>
    <path id="Path_461" data-name="Path 461" d="M34.824,38.4H29.177V56.64h5.647Z" fill="#37ddff"/>
    <path id="Path_462" data-name="Path 462" d="M15.059,41.92v6.4H48.941v-6.4Z" fill="#37ddff"/>
    <path id="Path_463" data-name="Path 463" d="M16.64,29.687H47.36a1.28,1.28,0,0,1,1.28,1.28v3.52a1.28,1.28,0,0,1-1.28,1.28H16.64a1.28,1.28,0,0,1-1.28-1.28v-3.52a1.28,1.28,0,0,1,1.28-1.28Zm30.72-2.56a3.84,3.84,0,0,1,3.84,3.84v3.52a3.84,3.84,0,0,1-3.84,3.84H16.64a3.84,3.84,0,0,1-3.84-3.84v-3.52a3.84,3.84,0,0,1,3.84-3.84H47.36Z" fill="#37ddff" fill-rule="evenodd"/>
    <path id="Path_464" data-name="Path 464" d="M34.824,27.2H29.177V38.4h5.647Z" fill="#37ddff"/>
    <path id="Path_465" data-name="Path 465" d="M51.859,19.323l.1-.366a2.592,2.592,0,0,1,.654-1.209,5.35,5.35,0,0,1,1.141-.789,9.36,9.36,0,0,1,1.2-.565,4.1,4.1,0,0,0,.986-.521,1.458,1.458,0,0,0,.551-.823,1.159,1.159,0,0,0-.255-1.2,3.583,3.583,0,0,0-1.666-.8,6.36,6.36,0,0,0-1.656-.217,5.647,5.647,0,0,0-1.483.14l.7-2.6a7.839,7.839,0,0,1,1.826-.11,10.51,10.51,0,0,1,2.2.361,5.373,5.373,0,0,1,3.147,1.9,3.367,3.367,0,0,1,.463,2.974,3.258,3.258,0,0,1-.913,1.635,6.758,6.758,0,0,1-1.652,1l-1.474.72a1.511,1.511,0,0,0-.791,1.027l-.067.25-3.006-.805ZM50.81,22.7l.6-2.235,3.256.873-.6,2.235L50.81,22.7ZM6.972,44.018l-.062-.231a1.634,1.634,0,0,1-.024-.868,3.362,3.362,0,0,1,.375-.792,5.885,5.885,0,0,1,.481-.69,2.556,2.556,0,0,0,.375-.6.92.92,0,0,0,.042-.625.732.732,0,0,0-.521-.579,2.271,2.271,0,0,0-1.164.09,4.02,4.02,0,0,0-.975.4,3.59,3.59,0,0,0-.768.545L4.29,39.03a4.907,4.907,0,0,1,.965-.637,6.622,6.622,0,0,1,1.316-.5,3.4,3.4,0,0,1,2.323.044,2.129,2.129,0,0,1,1.194,1.482,2.061,2.061,0,0,1,.017,1.184,4.294,4.294,0,0,1-.588,1.071l-.579.86a.96.96,0,0,0-.109.813l.042.158-1.9.509ZM7.464,46.2l-.379-1.413,2.059-.552.379,1.413L7.464,46.2Zm4.291-27.384-.083-.309a2.185,2.185,0,0,1-.032-1.16,4.52,4.52,0,0,1,.5-1.058,7.95,7.95,0,0,1,.642-.922,3.468,3.468,0,0,0,.5-.8,1.23,1.23,0,0,0,.055-.834.977.977,0,0,0-.695-.773,3.025,3.025,0,0,0-1.555.12,5.37,5.37,0,0,0-1.3.541,4.794,4.794,0,0,0-1.026.728l-.589-2.2A6.607,6.607,0,0,1,9.461,11.3a8.807,8.807,0,0,1,1.758-.663,4.538,4.538,0,0,1,3.1.058,2.842,2.842,0,0,1,1.594,1.979,2.751,2.751,0,0,1,.023,1.581,5.713,5.713,0,0,1-.785,1.431l-.773,1.149a1.275,1.275,0,0,0-.145,1.085l.057.212-2.538.68Zm.658,2.91-.506-1.887,2.75-.737.506,1.887Z" fill="#de8fff"/>
  </g>
</svg>
