<svg xmlns="http://www.w3.org/2000/svg" width="201.223" height="203.589" viewBox="0 0 201.223 203.589">
  <g id="ifo-wsote" transform="translate(-1174.238 112)">
    <g id="Group_261" data-name="Group 261">
      <path id="Path_386" data-name="Path 386" d="M49.85,126.507c-.358-5.052-4.836-9.743-8.6-6.359a9.85,9.85,0,0,0-.95.983l-10.26,12.2a.028.028,0,0,0,.016.046.028.028,0,0,1,.018.043A17.668,17.668,0,0,0,27,143.685C27,154.187,34.732,161,44.27,161s17.27-6.813,17.27-17.315a19.65,19.65,0,0,0-.432-4.157.023.023,0,0,1,.027-.028.024.024,0,0,0,.027-.029l-2.416-7.844a2.353,2.353,0,0,0-4.445-.149l-.21.548a2.014,2.014,0,0,1-3.89-.578l-.35-4.941Zm94.733-.984c-1.654-4.787-7.193-8.16-9.956-3.916a9.826,9.826,0,0,0-.663,1.2l-6.754,14.436a.027.027,0,0,0,.027.039.028.028,0,0,1,.028.038,17.673,17.673,0,0,0-.308,10.714c2.718,10.144,11.95,14.723,21.163,12.255s14.918-11.05,12.2-21.2a19.671,19.671,0,0,0-1.494-3.9.023.023,0,0,1,.019-.033.024.024,0,0,0,.018-.036l-4.364-6.95a2.352,2.352,0,0,0-4.332,1.006l-.061.584a2.013,2.013,0,0,1-3.906.448l-1.617-4.682Z" transform="translate(1180.85 -114.411)" fill="#ff564f"/>
      <g id="sweetswap-logo" transform="translate(1232.028 -32.735)">
        <g id="Group_27" data-name="Group 27" transform="translate(1.412 5.745) rotate(-30)">
          <path id="Path_20" data-name="Path 20" d="M5.745,0A5.745,5.745,0,0,0,0,5.745V36.661a5.745,5.745,0,0,0,11.49,0V5.737A5.745,5.745,0,0,0,5.745,0Z" transform="translate(0 0)" fill="#fd0"/>
        </g>
        <g id="Group_27-2" data-name="Group 27" transform="translate(64.745 0) rotate(30)">
          <path id="Path_20-2" data-name="Path 20" d="M5.745,0A5.745,5.745,0,0,0,0,5.745V36.661a5.745,5.745,0,0,0,11.49,0V5.737A5.745,5.745,0,0,0,5.745,0Z" transform="translate(0 0)" fill="#fd0"/>
        </g>
        <path id="Path_21" data-name="Path 21" d="M372.846,307.068a42.781,42.781,0,1,1,34.44-49.748,42.782,42.782,0,0,1-34.44,49.748ZM362.54,250.407a14.793,14.793,0,1,0,11.093,2.383,14.807,14.807,0,0,0-11.093-2.383Z" transform="translate(-322.406 -204.307)" fill="#fd0"/>
        <path id="Path_22" data-name="Path 22" d="M335.384,246.456a33.578,33.578,0,0,0,8.495,46.726,26.427,26.427,0,0,0,36.768-6.687,20.716,20.716,0,0,0-5.236-28.794,16,16,0,0,0-12.057-2.6,16.245,16.245,0,0,0-4.631,1.6,14.8,14.8,0,0,0-3.409,27.009,14.139,14.139,0,0,1-1.677-.98,16.852,16.852,0,0,1-4.263-23.444,20.51,20.51,0,0,1,28.538-5.19A25.125,25.125,0,0,1,384.263,289a30.809,30.809,0,0,1-42.873,7.8,37.967,37.967,0,0,1-9.606-52.828,46.742,46.742,0,0,1,9.123-9.8,42.9,42.9,0,0,1,25.8-5.837A42.464,42.464,0,0,0,335.384,246.456Z" transform="translate(-319.992 -210.254)" fill="#ffee7d"/>
        <path id="Path_24" data-name="Path 24" d="M326.178,249.98a42.778,42.778,0,1,1,69.408,49.92C392.346,281.505,379.2,243.358,326.178,249.98Z" transform="translate(-318.948 -213.084)" fill="#414042" opacity="0.1"/>
        <path id="Path_25" data-name="Path 25" d="M366.595,251.817c3.37-5.071-7.224-10.559-17.806-17.6s-17.139-12.949-20.514-7.878,2.47,14.887,13.053,21.919S363.224,256.892,366.595,251.817Z" transform="translate(-317.901 -155.647)" fill="#fff" opacity="0.3"/>
        <path id="Path_26" data-name="Path 26" d="M337.943,248.133a6.465,6.465,0,1,0-5.99,6.894,6.465,6.465,0,0,0,5.99-6.894Z" transform="translate(-319.997 -189.804)" fill="#fff" opacity="0.3"/>
        <ellipse id="Ellipse_18" data-name="Ellipse 18" cx="3.83" cy="5.745" rx="3.83" ry="5.745" transform="translate(53.62 26.81)" fill="#fff"/>
        <ellipse id="Ellipse_19" data-name="Ellipse 19" cx="3.83" cy="5.745" rx="3.83" ry="5.745" transform="translate(22.98 30.64)" fill="#fff"/>
      </g>
      <rect id="Rectangle_2" data-name="Rectangle 2" width="201.223" height="54.441" rx="7.189" transform="translate(1174.238 37.148)" fill="#fe7b7b"/>
      <path id="Path_216" data-name="Path 216" d="M73.859,156.307c0,6.456-5.117,8.572-11.43,8.572S51,162.763,51,156.307s5.117-8.573,11.43-8.573S73.859,149.851,73.859,156.307Z" transform="translate(1179 -116)" fill="#ffee7d"/>
      <path id="Path_217" data-name="Path 217" d="M142.559,155.705c0,6.456-5.05,8.572-11.28,8.572S120,162.161,120,155.705s5.05-8.572,11.279-8.572S142.559,149.249,142.559,155.705Z" transform="translate(1179 -116)" fill="#ffee7d"/>
      <rect id="Rectangle_3" data-name="Rectangle 3" width="27.07" height="115.199" transform="translate(1177.741 -56.194) rotate(-6.799)" fill="#fe7b7b"/>
      <path id="Path_218" data-name="Path 218" d="M-1.259,59.806l26.88-3.2,6.988,58.612A27.07,27.07,0,0,1,2.524,91.538Z" transform="translate(1179 -116)" fill="#ff6868"/>
      <rect id="Rectangle_4" data-name="Rectangle 4" width="27.07" height="115.199" transform="translate(1358.728 58.196) rotate(-173.201)" fill="#fe7b7b"/>
      <path id="Path_219" data-name="Path 219" d="M193.365,59.806l-26.88-3.2L159.5,115.214a27.07,27.07,0,0,0,30.085-23.676Z" transform="translate(1179 -116)" fill="#ff6868"/>
      <path id="Path_220" data-name="Path 220" d="M164.826,4H131.983l6.354,67.561A18.046,18.046,0,0,0,156.3,87.918h5.6a18.047,18.047,0,0,0,17.56-22.212Z" transform="translate(1179 -116)" fill="#a18afe"/>
      <path id="Path_221" data-name="Path 221" d="M26.873,4H59.716L53.363,71.561A18.047,18.047,0,0,1,35.4,87.918H29.8a18.047,18.047,0,0,1-17.56-22.212Z" transform="translate(1179 -116)" fill="#896cfb"/>
      <path id="Path_222" data-name="Path 222" d="M131.983,4H95.849V69.871A18.047,18.047,0,0,0,113.9,87.918h6.155a18.046,18.046,0,0,0,17.967-19.736Z" transform="translate(1179 -116)" fill="#896cfb"/>
      <path id="Path_223" data-name="Path 223" d="M59.716,4H95.85V69.871A18.047,18.047,0,0,1,77.8,87.918H71.648A18.047,18.047,0,0,1,53.681,68.182Z" transform="translate(1179 -116)" fill="#a18afe"/>
    </g>
  </g>
</svg>
