<svg xmlns="http://www.w3.org/2000/svg" width="64" height="64" viewBox="0 0 64 64">
  <g id="candy-candy" transform="translate(-1776 -854)">
    <rect id="Rectangle_153" data-name="Rectangle 153" width="64" height="64" transform="translate(1776 854)" fill="#fff" opacity="0"/>
    <g id="Group_111" data-name="Group 111" transform="translate(1781.502 854)">
      <g id="Group_29" data-name="Group 29">
        <g id="Group_26" data-name="Group 26" transform="translate(4.689 18.569)">
          <path id="Path_19" data-name="Path 19" d="M329.2,275.063a2.844,2.844,0,0,1-2.844-2.844v-31.54a2.844,2.844,0,0,1,5.688,0v31.54A2.844,2.844,0,0,1,329.2,275.063Z" transform="translate(-326.359 -237.835)" fill="#fc478c"/>
        </g>
        <g id="Group_27" data-name="Group 27" transform="translate(30.658 37.759)">
          <path id="Path_20" data-name="Path 20" d="M351.8,280.241a3.555,3.555,0,0,1-3.555-3.555V257.555a3.555,3.555,0,0,1,7.11,0v19.136a3.555,3.555,0,0,1-3.555,3.55Z" transform="translate(-348.241 -254)" fill="#fc478c"/>
        </g>
        <path id="Path_21" data-name="Path 21" d="M353.618,222.619A26.473,26.473,0,1,0,374.93,253.4a26.473,26.473,0,0,0-21.311-30.784Zm-6.378,35.062a9.154,9.154,0,1,1,6.864-1.474,9.163,9.163,0,0,1-6.864,1.474Z" transform="translate(-322.406 -222.188)" fill="#fc478c"/>
        <path id="Path_22" data-name="Path 22" d="M331.437,262.7a20.778,20.778,0,0,1,5.257-28.914,16.353,16.353,0,0,1,22.752,4.138,12.819,12.819,0,0,1-3.24,17.818,9.9,9.9,0,0,1-7.461,1.612,10.053,10.053,0,0,1-2.865-.988,9.158,9.158,0,0,1-2.109-16.713,8.763,8.763,0,0,0-1.038.607,10.428,10.428,0,0,0-2.638,14.507,12.692,12.692,0,0,0,17.659,3.211,15.547,15.547,0,0,0,3.929-21.6,19.064,19.064,0,0,0-26.53-4.825,23.494,23.494,0,0,0-5.944,32.69,28.925,28.925,0,0,0,5.645,6.067,26.544,26.544,0,0,0,15.967,3.612A26.277,26.277,0,0,1,331.437,262.7Z" transform="translate(-321.913 -221.078)" fill="#dd6"/>
        <g id="Group_28" data-name="Group 28" transform="translate(43.103 22.314)">
          <path id="Path_23" data-name="Path 23" d="M361.222,277.665a2.489,2.489,0,0,1-2.491-2.488v-31.54a2.491,2.491,0,1,1,4.977,0v31.538a2.488,2.488,0,0,1-2.486,2.491Z" transform="translate(-358.729 -241.036)" fill="#fc478c"/>
        </g>
        <path id="Path_24" data-name="Path 24" d="M326.178,261.757a26.471,26.471,0,1,0,42.949-30.891C367.122,242.249,358.991,265.855,326.178,261.757Z" transform="translate(-321.704 -220.568)" fill="#414042" opacity="0.1"/>
        <path id="Path_25" data-name="Path 25" d="M351.623,226.278c2.086,3.138-4.47,6.534-11.018,10.888s-10.606,8.013-12.694,4.875,1.529-9.212,8.077-13.564S349.537,223.138,351.623,226.278Z" transform="translate(-321.491 -221.768)" fill="#fff" opacity="0.3"/>
        <path id="Path_26" data-name="Path 26" d="M333.02,246.389a4,4,0,1,1-3.707-4.266,4,4,0,0,1,3.707,4.266Z" transform="translate(-321.915 -218.463)" fill="#fff" opacity="0.3"/>
      </g>
    </g>
  </g>
</svg>
