<svg xmlns="http://www.w3.org/2000/svg" width="50.454" height="49.048" viewBox="0 0 50.454 49.048">
  <g id="candy" transform="translate(-133.658 -85.697)">
    <g id="Group_104" data-name="Group 104" transform="translate(166.812 85.697)">
      <path id="Path_80" data-name="Path 80" d="M200.574,101.836s9.217.472,11.327-.166,4.9-2.666,3.99-4.22-4.372-1.02-4.127-3.15.554-3.767-.763-4.024c-2.8-.547-4.105.115-4.31-1.255s.129-4.536-3.048-2.833-4.5,12.014-4.5,12.014S197.665,100.258,200.574,101.836Z" transform="translate(-198.768 -85.697)" fill="#64095d"/>
    </g>
    <g id="Group_105" data-name="Group 105" transform="translate(171.098 97.458)">
      <path id="Path_81" data-name="Path 81" d="M207.184,111.806s8.554-2.021,10.269-2.826,2,1.214,1.082,1.851S214.581,113.243,207.184,111.806Z" transform="translate(-207.184 -108.794)" fill="#490748"/>
    </g>
    <g id="Group_106" data-name="Group 106" transform="translate(172.974 92.513)">
      <path id="Path_82" data-name="Path 82" d="M211.88,105.352s6.078-2.858,5.3-5.382-4.731.978-5.493,2.616S210.232,105.422,211.88,105.352Z" transform="translate(-210.869 -99.083)" fill="#490748"/>
    </g>
    <g id="Group_107" data-name="Group 107" transform="translate(169.555 89.563)">
      <path id="Path_83" data-name="Path 83" d="M209.528,95.458a25.18,25.18,0,0,0-3.6,5.235c-.793,2.041-1.3,2.362-1.7,1s.8-8.369,3.236-8.4C208.758,93.274,209.367,93.822,209.528,95.458Z" transform="translate(-204.154 -93.289)" fill="#490748"/>
    </g>
    <g id="Group_108" data-name="Group 108" transform="translate(133.658 118.423)">
      <path id="Path_84" data-name="Path 84" d="M148.984,149.969s-9.229-.089-11.311.637-4.783,2.867-3.811,4.382,4.41.838,4.254,2.976-.4,3.787.93,3.989c2.824.43,4.1-.286,4.359,1.075s.06,4.538,3.162,2.7,4-12.191,4-12.191S151.956,151.423,148.984,149.969Z" transform="translate(-133.658 -149.965)" fill="#64095d"/>
    </g>
    <g id="Group_109" data-name="Group 109" transform="translate(134.791 119.543)">
      <path id="Path_85" data-name="Path 85" d="M147.656,152.517s-8.462,2.375-10.143,3.25-2.05-1.129-1.158-1.8S140.206,151.389,147.656,152.517Z" transform="translate(-135.884 -152.166)" fill="#490748"/>
    </g>
    <g id="Group_110" data-name="Group 110" transform="translate(138.59 121.69)">
      <path id="Path_86" data-name="Path 86" d="M148.5,156.393s-5.953,3.108-5.069,5.6,4.686-1.174,5.379-2.842S150.146,156.255,148.5,156.393Z" transform="translate(-143.344 -156.382)" fill="#490748"/>
    </g>
    <g id="Group_111" data-name="Group 111" transform="translate(143.098 121.535)">
      <path id="Path_87" data-name="Path 87" d="M152.2,163.327a25.157,25.157,0,0,0,3.375-5.379c.707-2.073,1.2-2.414,1.66-1.066s-.454,8.395-2.884,8.525C153.058,165.476,152.427,164.954,152.2,163.327Z" transform="translate(-152.197 -156.077)" fill="#490748"/>
    </g>
    <g id="Group_113" data-name="Group 113" transform="translate(145.206 96.603)">
      <g id="Group_112" data-name="Group 112" transform="translate(0 0)">
        <path id="Path_88" data-name="Path 88" d="M180.109,110.388c.847.873,2.45,1.644,2.911,2.738,2.044,4.848.352,11.457-4.586,16.246-4.9,4.751-11.492,6.254-16.267,4.137-1.123-.5-1.865-1.764-2.741-2.667-1.141-1.177-2.208-2.024-2.652-3.575-1.346-4.7.448-10.662,5-15.076s10.531-6.016,15.185-4.546C178.507,108.135,178.959,109.2,180.109,110.388Z" transform="translate(-156.336 -107.116)" fill="#64095d"/>
      </g>
    </g>
    <g id="Group_114" data-name="Group 114" transform="translate(145.209 96.64)">
      <path id="Path_89" data-name="Path 89" d="M159.387,125.34c1.258,3.943,1.057,8.711,1.413,13.164.041.042.081.081.123.124a19.834,19.834,0,0,0,2.179,2.329c-1.112-5.807-.118-12.8-2.353-17.975A18.059,18.059,0,0,0,159.387,125.34Z" transform="translate(-157.837 -114.939)" fill="#ea0446"/>
      <path id="Path_90" data-name="Path 90" d="M165.718,116.91a19.38,19.38,0,0,0-1.341,1.448c2.911,5.716,1.273,14,3.075,20.344a11.534,11.534,0,0,0,2.349.422c-2.671-6.688-.287-16.231-3.888-22.393C165.849,116.792,165.782,116.848,165.718,116.91Z" transform="translate(-160.286 -111.871)" fill="#eef443"/>
      <path id="Path_91" data-name="Path 91" d="M156.777,139.966a4.916,4.916,0,0,0,.86,1.665,57.766,57.766,0,0,0-.765-8.64A12.965,12.965,0,0,0,156.777,139.966Z" transform="translate(-156.344 -119.851)" fill="#49d8e5"/>
      <path id="Path_92" data-name="Path 92" d="M170.006,113.3c4.022,6.411,1.129,16.729,4.444,23.54a14.65,14.65,0,0,0,2.233-.33c-3.945-6.843-.6-17.8-4.935-24.428A18.88,18.88,0,0,0,170.006,113.3Z" transform="translate(-163.049 -109.591)" fill="#49d8e5"/>
      <path id="Path_93" data-name="Path 93" d="M176.4,109.625c4.4,6.741.866,17.965,5.143,24.775a17.222,17.222,0,0,0,1.989-.836c-4.441-6.716-.908-17.939-5.142-24.772A17.168,17.168,0,0,0,176.4,109.625Z" transform="translate(-166.188 -107.975)" fill="#ea0446"/>
      <path id="Path_94" data-name="Path 94" d="M183.688,107.51c3.9,6.864.564,17.82,4.935,24.42a18.94,18.94,0,0,0,1.738-1.225c-4.051-6.387-1.168-16.692-4.44-23.519A14.616,14.616,0,0,0,183.688,107.51Z" transform="translate(-169.764 -107.187)" fill="#eef443"/>
      <path id="Path_95" data-name="Path 95" d="M191.768,107.2c2.631,6.7.26,16.228,3.886,22.367.056-.052.114-.1.169-.154a19.436,19.436,0,0,0,1.362-1.477c-2.929-5.695-1.3-13.964-3.075-20.313A11.542,11.542,0,0,0,191.768,107.2Z" transform="translate(-173.73 -107.193)" fill="#49d8e5"/>
      <path id="Path_96" data-name="Path 96" d="M201.646,111.966c-.576-.594-.977-1.157-1.428-1.634.988,5.737.087,12.541,2.292,17.589a17.945,17.945,0,0,0,1.353-2.371c-1.24-3.859-1.074-8.512-1.4-12.888A7.366,7.366,0,0,1,201.646,111.966Z" transform="translate(-177.877 -108.731)" fill="#ea0446"/>
      <path id="Path_97" data-name="Path 97" d="M207.849,117.6a58.225,58.225,0,0,0,.782,8.8,12.477,12.477,0,0,0-.329-8.128A2.469,2.469,0,0,0,207.849,117.6Z" transform="translate(-181.622 -112.296)" fill="#eef443"/>
    </g>
    <g id="Group_115" data-name="Group 115" transform="translate(145.206 96.603)" opacity="0.2">
      <path id="Path_98" data-name="Path 98" d="M182.228,113.614c0-.533-.033-1.057-.079-1.578-.661-.58-1.5-1.094-2.04-1.649-1.15-1.186-1.6-2.252-3.152-2.742-4.654-1.47-10.646.144-15.185,4.546s-6.345,10.373-5,15.076a5.817,5.817,0,0,0,1.587,2.5,17.386,17.386,0,0,0,23.868-16.151Z" transform="translate(-156.336 -107.116)" fill="#fff"/>
    </g>
    <g id="Group_117" data-name="Group 117" transform="translate(146.398 98.369)" opacity="0.5">
      <g id="Group_116" data-name="Group 116" transform="translate(0)">
        <path id="Path_99" data-name="Path 99" d="M177.581,111.152s-.48.083-1.286.256c-.4.079-.887.212-1.434.336-.546.145-1.152.323-1.8.53s-1.339.446-2.04.751l-.536.216-.531.258a11.563,11.563,0,0,0-1.073.546,20.426,20.426,0,0,0-2.1,1.323c-.328.261-.651.531-.989.784-.312.283-.609.585-.917.874a9.062,9.062,0,0,0-.851.938l-.417.476c-.13.166-.242.345-.364.516l-.359.516-.185.253-.092.126-.023.031-.006.008c.01-.018-.029.052.02-.039l-.011.019-.042.073c-.212.381-.485.8-.645,1.132a15.241,15.241,0,0,0-.927,2.092,15.99,15.99,0,0,0-.594,2.039,17.719,17.719,0,0,0-.3,1.816c-.055.552-.09,1.044-.1,1.452-.017.817.022,1.3.022,1.3a6.122,6.122,0,0,1-.6-1.2,11.179,11.179,0,0,1-.718-3.506,12.345,12.345,0,0,1,.145-2.438,10.589,10.589,0,0,1,.28-1.316,11.4,11.4,0,0,1,.449-1.376c.17-.489.364-.833.552-1.263.269-.513.509-.877.781-1.324.134-.213.26-.433.405-.642l.481-.6a11.238,11.238,0,0,1,1.016-1.157c.379-.349.75-.707,1.138-1.042.408-.309.829-.6,1.239-.892a15.075,15.075,0,0,1,2.618-1.336,9.827,9.827,0,0,1,1.315-.452,9.536,9.536,0,0,1,1.282-.321,15.7,15.7,0,0,1,2.375-.309c.37-.008.721-.031,1.056-.022l.948.046a13.411,13.411,0,0,1,1.523.2,9.06,9.06,0,0,1,.96.22C177.468,111.108,177.581,111.152,177.581,111.152Z" transform="translate(-158.677 -110.583)" fill="#fff"/>
      </g>
    </g>
  </g>
</svg>
