<svg xmlns="http://www.w3.org/2000/svg" width="236.597" height="230" viewBox="0 0 236.597 230">
  <g id="candy-background" transform="translate(-133.658 -85.697)" opacity="0.15">
    <g id="Group_104" data-name="Group 104" transform="translate(289.13 85.697)">
      <path id="Path_80" data-name="Path 80" d="M207.237,161.38s43.22,2.214,53.117-.778,22.971-12.5,18.709-19.79-20.5-4.785-19.353-14.773,2.6-17.665-3.579-18.869c-13.145-2.565-19.251.54-20.211-5.886s.6-21.271-14.291-13.283-21.1,56.338-21.1,56.338S193.593,153.982,207.237,161.38Z" transform="translate(-198.768 -85.697)" fill="#64095d"/>
    </g>
    <g id="Group_105" data-name="Group 105" transform="translate(309.226 140.849)">
      <path id="Path_81" data-name="Path 81" d="M207.184,122.918s40.113-9.477,48.155-13.25,9.384,5.693,5.074,8.68S241.872,129.657,207.184,122.918Z" transform="translate(-207.184 -108.794)" fill="#490748"/>
    </g>
    <g id="Group_106" data-name="Group 106" transform="translate(318.025 117.662)">
      <path id="Path_82" data-name="Path 82" d="M215.609,128.479s28.5-13.4,24.841-25.239-22.185,4.587-25.758,12.266S207.882,128.806,215.609,128.479Z" transform="translate(-210.869 -99.083)" fill="#490748"/>
    </g>
    <g id="Group_107" data-name="Group 107" transform="translate(301.99 103.827)">
      <path id="Path_83" data-name="Path 83" d="M229.355,103.458s-13.14,14.972-16.86,24.547-6.1,11.075-7.985,4.668,3.761-39.244,15.175-39.382C225.743,93.219,228.6,95.788,229.355,103.458Z" transform="translate(-204.154 -93.289)" fill="#490748"/>
    </g>
    <g id="Group_108" data-name="Group 108" transform="translate(133.658 239.159)">
      <path id="Path_84" data-name="Path 84" d="M205.528,149.981s-43.277-.416-53.041,2.985-22.431,13.443-17.87,20.55,20.681,3.93,19.95,13.957-1.862,17.758,4.36,18.7c13.241,2.015,19.21-1.34,20.44,5.041s.279,21.278,14.828,12.679,18.74-57.167,18.74-57.167S219.465,156.8,205.528,149.981Z" transform="translate(-133.658 -149.965)" fill="#64095d"/>
    </g>
    <g id="Group_109" data-name="Group 109" transform="translate(138.974 244.415)">
      <path id="Path_85" data-name="Path 85" d="M191.086,153.808s-39.683,11.137-47.563,15.239-9.613-5.3-5.432-8.46S156.15,148.519,191.086,153.808Z" transform="translate(-135.884 -152.166)" fill="#490748"/>
    </g>
    <g id="Group_110" data-name="Group 110" transform="translate(156.787 254.482)">
      <path id="Path_86" data-name="Path 86" d="M167.533,156.432s-27.916,14.575-23.768,26.249,21.975-5.5,25.225-13.327S175.243,155.785,167.533,156.432Z" transform="translate(-143.344 -156.382)" fill="#490748"/>
    </g>
    <g id="Group_111" data-name="Group 111" transform="translate(177.927 253.754)">
      <path id="Path_87" data-name="Path 87" d="M152.2,190.072s12.51-15.5,15.827-25.225,5.638-11.321,7.784-5-2.128,39.366-13.525,39.977C156.235,200.151,153.274,197.7,152.2,190.072Z" transform="translate(-152.197 -156.077)" fill="#490748"/>
    </g>
    <g id="Group_113" data-name="Group 113" transform="translate(187.81 136.842)">
      <g id="Group_112" data-name="Group 112" transform="translate(0 0)">
        <path id="Path_88" data-name="Path 88" d="M267.814,122.458c3.971,4.1,11.488,7.71,13.649,12.839,9.585,22.735,1.65,53.726-21.5,76.184-22.973,22.281-53.891,29.327-76.282,19.4-5.267-2.335-8.744-8.271-12.854-12.508-5.351-5.518-10.354-9.489-12.438-16.763-6.313-22.052,2.1-50,23.439-70.694,21.283-20.643,49.385-28.21,71.208-21.316C260.3,111.9,262.42,116.9,267.814,122.458Z" transform="translate(-156.336 -107.116)" fill="#64095d"/>
      </g>
    </g>
    <g id="Group_114" data-name="Group 114" transform="translate(187.828 137.012)">
      <path id="Path_89" data-name="Path 89" d="M159.387,134.04c5.9,18.491,4.955,40.851,6.626,61.73.193.2.382.382.575.583,3.379,3.484,6.347,8.088,10.218,10.922-5.213-27.231-.552-60.04-11.032-84.293A84.688,84.688,0,0,0,159.387,134.04Z" transform="translate(-152.12 -85.266)" fill="#ea0446"/>
      <path id="Path_90" data-name="Path 90" d="M170.664,117.571a90.869,90.869,0,0,0-6.287,6.791c13.649,26.8,5.97,65.658,14.418,95.4a54.089,54.089,0,0,0,11.018,1.979c-12.524-31.362-1.347-76.112-18.231-105.01C171.278,117.017,170.965,117.28,170.664,117.571Z" transform="translate(-145.194 -93.941)" fill="#eef443"/>
      <path id="Path_91" data-name="Path 91" d="M158.374,165.7a23.051,23.051,0,0,0,4.033,7.806c-.654-13.811-.986-27.8-3.589-40.514C155.717,144.288,155.487,155.611,158.374,165.7Z" transform="translate(-156.343 -71.375)" fill="#49d8e5"/>
      <path id="Path_92" data-name="Path 92" d="M170.006,117.8c18.859,30.065,5.294,78.45,20.841,110.387a68.7,68.7,0,0,0,10.471-1.55c-18.5-32.09-2.825-83.491-23.143-114.551A88.533,88.533,0,0,0,170.006,117.8Z" transform="translate(-137.382 -100.388)" fill="#49d8e5"/>
      <path id="Path_93" data-name="Path 93" d="M176.4,112.7c20.633,31.61,4.062,84.243,24.119,116.18a80.752,80.752,0,0,0,9.327-3.921c-20.827-31.5-4.258-84.121-24.112-116.165A80.511,80.511,0,0,0,176.4,112.7Z" transform="translate(-128.507 -104.96)" fill="#ea0446"/>
      <path id="Path_94" data-name="Path 94" d="M183.688,108.7c18.3,32.188,2.646,83.565,23.141,114.516a88.81,88.81,0,0,0,8.152-5.743c-19-29.951-5.478-78.273-20.822-110.287A68.537,68.537,0,0,0,183.688,108.7Z" transform="translate(-118.394 -107.187)" fill="#eef443"/>
      <path id="Path_95" data-name="Path 95" d="M191.768,107.2c12.338,31.421,1.218,76.1,18.224,104.885.26-.246.535-.47.793-.721a91.132,91.132,0,0,0,6.387-6.927c-13.737-26.705-6.106-65.481-14.418-95.253A54.125,54.125,0,0,0,191.768,107.2Z" transform="translate(-107.18 -107.169)" fill="#49d8e5"/>
      <path id="Path_96" data-name="Path 96" d="M206.914,117.995c-2.7-2.784-4.58-5.428-6.7-7.663,4.635,26.9.408,58.807,10.75,82.48a84.147,84.147,0,0,0,6.344-11.118c-5.817-18.095-5.038-39.915-6.562-60.436A34.542,34.542,0,0,1,206.914,117.995Z" transform="translate(-95.453 -102.822)" fill="#ea0446"/>
      <path id="Path_97" data-name="Path 97" d="M207.849,117.6c.676,14.067.986,28.339,3.668,41.271,3.656-13.369,3.238-26.77-1.545-38.115A11.576,11.576,0,0,0,207.849,117.6Z" transform="translate(-84.863 -92.741)" fill="#eef443"/>
    </g>
    <g id="Group_115" data-name="Group 115" transform="translate(187.81 136.842)" opacity="0.2">
      <path id="Path_98" data-name="Path 98" d="M277.752,137.587c0-2.5-.153-4.957-.372-7.4-3.1-2.722-7.044-5.131-9.566-7.732C262.42,116.9,260.3,111.9,253.031,109.6c-21.822-6.894-49.925.673-71.208,21.316-21.34,20.7-29.752,48.642-23.439,70.694,1.409,4.914,4.162,8.319,7.441,11.715a81.529,81.529,0,0,0,111.927-75.737Z" transform="translate(-156.336 -107.116)" fill="#fff"/>
    </g>
    <g id="Group_117" data-name="Group 117" transform="translate(193.401 145.12)" opacity="0.5">
      <g id="Group_116" data-name="Group 116" transform="translate(0)">
        <path id="Path_99" data-name="Path 99" d="M247.322,113.251s-2.252.389-6.029,1.2c-1.891.37-4.16,1-6.727,1.576-2.562.681-5.4,1.516-8.446,2.483-3.028,1.015-6.28,2.092-9.566,3.52q-1.239.5-2.512,1.013-1.229.6-2.488,1.208a54.209,54.209,0,0,0-5.034,2.56,95.776,95.776,0,0,0-9.838,6.206c-1.538,1.225-3.052,2.491-4.637,3.677-1.464,1.328-2.856,2.744-4.3,4.1a42.5,42.5,0,0,0-3.99,4.4l-1.953,2.23c-.609.778-1.134,1.619-1.707,2.419l-1.684,2.419-.867,1.184-.432.592-.107.146-.029.038c.045-.086-.136.244.093-.184l-.05.088-.2.344c-.993,1.786-2.273,3.77-3.025,5.308a71.467,71.467,0,0,0-4.348,9.809,74.977,74.977,0,0,0-2.784,9.563,83.075,83.075,0,0,0-1.421,8.515c-.258,2.588-.42,4.9-.468,6.81-.081,3.83.1,6.11.1,6.11a28.7,28.7,0,0,1-2.8-5.623,52.42,52.42,0,0,1-3.367-16.443,57.888,57.888,0,0,1,.678-11.431,49.661,49.661,0,0,1,1.311-6.173,53.469,53.469,0,0,1,2.106-6.454c.8-2.292,1.7-3.906,2.588-5.922,1.261-2.407,2.385-4.114,3.663-6.208.63-1,1.22-2.03,1.9-3.009l2.257-2.8a52.7,52.7,0,0,1,4.766-5.427c1.777-1.636,3.517-3.317,5.334-4.885,1.915-1.449,3.887-2.808,5.812-4.184a70.7,70.7,0,0,1,12.278-6.266,46.079,46.079,0,0,1,6.168-2.118,44.723,44.723,0,0,1,6.013-1.5,73.638,73.638,0,0,1,11.137-1.447c1.736-.036,3.379-.143,4.95-.105l4.446.215a62.9,62.9,0,0,1,7.14.922,42.484,42.484,0,0,1,4.5,1.034C246.792,113.048,247.322,113.251,247.322,113.251Z" transform="translate(-158.677 -110.583)" fill="#fff"/>
      </g>
    </g>
  </g>
</svg>
