<svg xmlns="http://www.w3.org/2000/svg" xmlns:xlink="http://www.w3.org/1999/xlink" width="64" height="64" viewBox="0 0 64 64">
  <defs>
    <clipPath id="clip-path">
      <path id="Path_458" data-name="Path 458" d="M0,0H64V64H0Z" fill="#fff"/>
    </clipPath>
  </defs>
  <g id="present" clip-path="url(#clip-path)">
    <g id="Group_305" data-name="Group 305">
      <path id="Path_444" data-name="Path 444" d="M43.194,10.691A1.53,1.53,0,1,1,44.615,13.3L38.5,14.942l4.7-4.25Zm5.919-.177a5.07,5.07,0,0,0-8.291-2.445l-9.8,8.868a1.876,1.876,0,0,0,1.744,3.2l12.768-3.421a5.066,5.066,0,0,0,3.582-6.2Z" fill="#37ddff" fill-rule="evenodd"/>
      <path id="Path_445" data-name="Path 445" d="M30.189,8.084a1.66,1.66,0,1,0-2.754,1.683L32.3,14.631l-2.11-6.547ZM24.72,4.7a5.5,5.5,0,0,1,9.124,2.2l4.4,13.66a2.036,2.036,0,0,1-3.378,2.065L24.72,12.482a5.5,5.5,0,0,1,0-7.778Z" fill="#37ddff" fill-rule="evenodd"/>
    </g>
    <g id="Group_306" data-name="Group 306">
      <path id="Path_446" data-name="Path 446" d="M7.276,34.043a1.02,1.02,0,0,1-1.966,0l-.8-3.032a1.015,1.015,0,0,0-.725-.725l-3.032-.8a1.02,1.02,0,0,1,0-1.966l3.032-.8A1.015,1.015,0,0,0,4.514,26l.8-3.032a1.02,1.02,0,0,1,1.966,0L8.072,26a1.015,1.015,0,0,0,.725.725l3.032.8a1.02,1.02,0,0,1,0,1.966l-3.032.8a1.015,1.015,0,0,0-.725.725l-.8,3.032Z" fill="#b400ff" opacity="0.6"/>
      <path id="Path_447" data-name="Path 447" d="M9.62,11.664a.6.6,0,0,1-1.113.3l-.911-1.6a.593.593,0,0,0-.52-.3l-1.837.009a.6.6,0,0,1-.3-1.113l1.6-.911a.593.593,0,0,0,.3-.52L6.828,5.693a.6.6,0,0,1,1.113-.3l.911,1.6a.593.593,0,0,0,.52.3l1.837-.009a.6.6,0,0,1,.3,1.113l-1.6.911a.593.593,0,0,0-.3.52l.009,1.838Z" fill="#b400ff"/>
      <path id="Path_448" data-name="Path 448" d="M53.871,15.786a.58.58,0,0,1,0-1.118l3.093-.812a.58.58,0,0,0,.412-.412l.812-3.093a.58.58,0,0,1,1.118,0l.812,3.093a.58.58,0,0,0,.412.412l3.093.812a.58.58,0,0,1,0,1.118L60.53,16.6a.58.58,0,0,0-.412.412L59.306,20.1a.58.58,0,0,1-1.118,0l-.812-3.093a.577.577,0,0,0-.412-.412l-3.093-.812Z" fill="#b400ff" opacity="0.8"/>
    </g>
    <path id="Path_449" data-name="Path 449" d="M51.083,29.906a5.12,5.12,0,0,0-6.271-3.62l-27.2,7.288a5.12,5.12,0,0,0-3.62,6.271l4.555,17a5.12,5.12,0,0,0,6.271,3.62l27.2-7.288a5.12,5.12,0,0,0,3.62-6.271l-4.555-17Z" fill="#fff"/>
    <g id="Group_307" data-name="Group 307">
      <path id="Path_450" data-name="Path 450" d="M18.274,36.046l27.2-7.288a2.56,2.56,0,0,1,3.135,1.81l4.555,17a2.56,2.56,0,0,1-1.81,3.135l-27.2,7.288a2.56,2.56,0,0,1-3.135-1.81l-4.555-17a2.56,2.56,0,0,1,1.81-3.135Zm26.538-9.761a5.12,5.12,0,0,1,6.271,3.62l4.555,17a5.12,5.12,0,0,1-3.62,6.271l-27.2,7.288a5.12,5.12,0,0,1-6.271-3.62l-4.555-17a5.12,5.12,0,0,1,3.62-6.271l27.2-7.288Z" fill="#37ddff" fill-rule="evenodd"/>
      <path id="Path_451" data-name="Path 451" d="M35.23,28.853l-8.036,2.153L34.4,57.9l8.036-2.153L35.23,28.853Z" fill="#37ddff"/>
      <path id="Path_452" data-name="Path 452" d="M54.517,42.4l-2.153-8.036L15.111,44.348l2.153,8.036Z" fill="#37ddff"/>
    </g>
    <g id="Group_308" data-name="Group 308">
      <path id="Path_453" data-name="Path 453" d="M39.926,46.324l-8.065,2.161.331,1.236,8.065-2.161ZM29.7,40.426l8.065-2.161-.331-1.236L29.371,39.19l.331,1.236Z" fill="#37ddff" fill-rule="evenodd"/>
    </g>
    <path id="Path_454" data-name="Path 454" d="M54.831,24.945a3.84,3.84,0,0,0-2.715-4.7L17.5,10.966a3.84,3.84,0,0,0-4.7,2.715l-.911,3.4a3.84,3.84,0,0,0,2.715,4.7L49.217,31.06a3.84,3.84,0,0,0,4.7-2.715l.911-3.4Z" fill="#fff"/>
    <g id="Group_309" data-name="Group 309">
      <path id="Path_455" data-name="Path 455" d="M16.834,13.438l34.619,9.276a1.28,1.28,0,0,1,.9,1.568l-.911,3.4a1.28,1.28,0,0,1-1.568.905L15.26,19.311a1.28,1.28,0,0,1-.905-1.568l.911-3.4a1.28,1.28,0,0,1,1.568-.905Zm35.281,6.8a3.84,3.84,0,0,1,2.715,4.7l-.911,3.4a3.84,3.84,0,0,1-4.7,2.715L14.6,21.783a3.84,3.84,0,0,1-2.715-4.7l.911-3.4a3.84,3.84,0,0,1,4.7-2.715l34.619,9.276Z" fill="#37ddff" fill-rule="evenodd"/>
      <path id="Path_456" data-name="Path 456" d="M38.824,16.68l-8.036-2.153-2.9,10.818L35.926,27.5l2.9-10.818Z" fill="#37ddff"/>
    </g>
    <g id="Group_310" data-name="Group 310">
      <path id="Path_457" data-name="Path 457" d="M38.426,18.08l-8-2.24.32-1.44,8.136,2.257-.456,1.423Z" fill="#37ddff" fill-rule="evenodd"/>
    </g>
  </g>
</svg>
