<svg xmlns="http://www.w3.org/2000/svg" width="56.286" height="56.286" viewBox="0 0 56.286 56.286">
  <g id="present-disabled" transform="translate(-3.84 -3.84)">
    <g id="Group_313" data-name="Group 313" opacity="0.7">
      <g id="Group_312" data-name="Group 312">
        <path id="Path_466" data-name="Path 466" d="M26.406,18.728a1.015,1.015,0,0,0-1.765.021,1.1,1.1,0,0,0,.418,1.475l3.471,1.948-.168-.286-1.956-3.158Zm-5.055-1.96a4.731,4.731,0,0,1,8.228-.1l1.982,3.2,4.03,6.873H29.329a1.941,1.941,0,0,1-.952-.251L23.3,23.643a5.11,5.11,0,0,1-1.95-6.875Z" fill="#d570ff" fill-rule="evenodd"/>
        <path id="Path_467" data-name="Path 467" d="M38.1,18.728a1.015,1.015,0,0,1,1.765.021,1.1,1.1,0,0,1-.418,1.475l-3.471,1.948.168-.286Zm5.055-1.96a4.731,4.731,0,0,0-8.228-.1l-1.982,3.2-4.03,6.873H35.18a1.94,1.94,0,0,0,.952-.251l5.075-2.848a5.11,5.11,0,0,0,1.95-6.875ZM19.071,34.311H45.345V44.382a2.56,2.56,0,0,1-2.56,2.56H21.631a2.56,2.56,0,0,1-2.56-2.56V34.311ZM47.9,31.751V44.382a5.12,5.12,0,0,1-5.12,5.12H21.631a5.12,5.12,0,0,1-5.12-5.12V31.751H47.9Z" fill="#d570ff" fill-rule="evenodd"/>
      </g>
      <path id="Path_468" data-name="Path 468" d="M34.856,33.934H29.624V49.489h5.232Z" fill="#d570ff"/>
      <path id="Path_469" data-name="Path 469" d="M16.542,36.936v5.458H47.936V36.936Z" fill="#d570ff"/>
      <path id="Path_470" data-name="Path 470" d="M18.289,26.881h27.9a1.28,1.28,0,0,1,1.28,1.28v1.871a1.28,1.28,0,0,1-1.28,1.28h-27.9a1.28,1.28,0,0,1-1.28-1.28V28.161A1.28,1.28,0,0,1,18.289,26.881Zm27.9-2.56a3.84,3.84,0,0,1,3.84,3.84v1.871a3.84,3.84,0,0,1-3.84,3.84h-27.9a3.84,3.84,0,0,1-3.84-3.84V28.161a3.84,3.84,0,0,1,3.84-3.84Z" fill="#d570ff" fill-rule="evenodd"/>
      <path id="Path_471" data-name="Path 471" d="M34.856,24.383H29.624v9.551h5.232Z" fill="#d570ff"/>
    </g>
    <path id="Path_472" data-name="Path 472" d="M51.882,12.083,50.6,10.877A28.144,28.144,0,0,0,10.877,50.6q.583.66,1.206,1.283t1.283,1.206A28.144,28.144,0,0,0,53.089,13.366q-.579-.656-1.206-1.283ZM48.1,13.371A24.624,24.624,0,0,0,13.371,48.105L48.1,13.371ZM15.86,50.594,50.594,15.86A24.624,24.624,0,0,1,15.86,50.594Z" fill="#ebbcff" fill-rule="evenodd"/>
  </g>
</svg>
