<svg xmlns="http://www.w3.org/2000/svg" width="63.958" height="63.958" viewBox="0 0 63.958 63.958">
  <g id="ticket" transform="translate(-0.001 -0.018)">
    <path id="Path_387" data-name="Path 387" d="M61.03,22.922a1.87,1.87,0,0,1,.21,2.4A145.99,145.99,0,0,1,26.4,60.466l-1.068.762a1.97,1.97,0,0,1-2.536-.211l-4.81-4.81A7.51,7.51,0,1,0,7.368,45.587L2.945,41.164a1.925,1.925,0,0,1,.243-2.927l1.07-.762a142.46,142.46,0,0,0,33.994-34.3,1.83,1.83,0,0,1,2.788-.244l4.5,4.5a7.509,7.509,0,1,0,10.62,10.62l4.867,4.867Z" fill="#dbcdf9"/>
    <path id="Path_388" data-name="Path 388" d="M63.16,24.252,45.967,46.022,23.73,62.856l-4.277-4.308-1.543-1.87,1.543-2.233.54-2.233-.3-2.38L18.8,47.6l-1.488-1.786-1.786-1.19-1.935-.6h-2.38l-2.53.893-1.488,1.34L3.623,41.945l5.81-.867A106.28,106.28,0,0,0,58.885,19.946l4.277,4.308Z" fill="#e7aeff"/>
    <g id="Group_278" data-name="Group 278">
      <path id="Path_389" data-name="Path 389" d="M15.818,56.416a2.38,2.38,0,0,1,.7-1.685l.008-.008A5.13,5.13,0,0,0,9.274,47.47l-.008.008a2.38,2.38,0,0,1-3.371,0L1.26,42.848A4.31,4.31,0,0,1,1.8,36.3l1.07-.762,1.383,1.94-1.07.762a1.922,1.922,0,0,0-.243,2.927L7.578,45.8l.01-.01A7.51,7.51,0,0,1,18.22,56.4l-.023.023,4.6,4.6a1.97,1.97,0,0,0,2.536.211l1.068-.762A145.99,145.99,0,0,0,61.236,25.32a1.87,1.87,0,0,0-.21-2.4l-4.83-4.83-.106.106A7.51,7.51,0,1,1,45.47,7.578l.106-.106-4.538-4.54a1.83,1.83,0,0,0-2.788.244,142.46,142.46,0,0,1-33.993,34.3l-1.383-1.94A140.08,140.08,0,0,0,36.3,1.812a4.21,4.21,0,0,1,6.423-.563l4.54,4.54a2.38,2.38,0,0,1-.017,3.384l-.037.037a5.13,5.13,0,0,0,7.253,7.253l.037-.037a2.38,2.38,0,0,1,3.384-.017l4.83,4.83a4.252,4.252,0,0,1,.477,5.446,148.37,148.37,0,0,1-35.4,35.72l-1.068.762a4.35,4.35,0,0,1-5.6-.466l-4.6-4.6a2.38,2.38,0,0,1-.7-1.686Z" fill="#633001" fill-rule="evenodd"/>
      <path id="Path_390" data-name="Path 390" d="M31.99,11.253l1.052,1.052a1.191,1.191,0,1,1-1.684,1.684l-1.052-1.052a1.191,1.191,0,1,1,1.684-1.684Z" fill="#633001"/>
      <path id="Path_391" data-name="Path 391" d="M31.99,11.253l1.052,1.052a1.191,1.191,0,1,1-1.684,1.684l-1.052-1.052a1.191,1.191,0,1,1,1.684-1.684Z" transform="translate(4.42 4.421)" fill="#633001"/>
      <path id="Path_392" data-name="Path 392" d="M41.884,22.83a1.19,1.19,0,0,1-1.684,0l-1.263-1.263a1.191,1.191,0,0,1,1.684-1.684l1.263,1.263a1.19,1.19,0,0,1,0,1.684Z" fill="#633001"/>
      <path id="Path_393" data-name="Path 393" d="M41.884,22.83a1.19,1.19,0,0,1-1.684,0l-1.263-1.263a1.191,1.191,0,0,1,1.684-1.684l1.263,1.263a1.19,1.19,0,0,1,0,1.684Z" transform="translate(4.42 4.42)" fill="#633001"/>
      <path id="Path_394" data-name="Path 394" d="M49.46,28.724l1.052,1.052a1.191,1.191,0,0,1-1.684,1.684l-1.052-1.053a1.191,1.191,0,1,1,1.684-1.684Z" fill="#633001" fill-rule="evenodd"/>
      <path id="Path_395" data-name="Path 395" d="M31.99,11.253l1.052,1.052a1.191,1.191,0,1,1-1.684,1.684l-1.052-1.052a1.191,1.191,0,1,1,1.684-1.684Z" transform="translate(21.89 21.891)" fill="#633001"/>
    </g>
    <g id="Group_279" data-name="Group 279">
      <ellipse id="Ellipse_20" data-name="Ellipse 20" cx="1.432" cy="2.083" rx="1.432" ry="2.083" transform="translate(27.036 39.995) rotate(-45)" fill="#dbcdf9"/>
      <ellipse id="Ellipse_21" data-name="Ellipse 21" cx="1.432" cy="2.083" rx="1.432" ry="2.083" transform="translate(32.375 34.655) rotate(-45)" fill="#dbcdf9"/>
    </g>
    <g id="sweetswap-logo" transform="translate(17.429 32.757) rotate(-40)">
      <g id="Group_27" data-name="Group 27" transform="translate(0.311 1.266) rotate(-30)">
        <path id="Path_20" data-name="Path 20" d="M1.266,0A1.266,1.266,0,0,0,0,1.266V8.076a1.266,1.266,0,0,0,2.531,0V1.264A1.266,1.266,0,0,0,1.266,0Z" transform="translate(0 0)" fill="#633001"/>
      </g>
      <g id="Group_27-2" data-name="Group 27" transform="translate(14.263 0) rotate(30)">
        <path id="Path_20-2" data-name="Path 20" d="M1.266,0A1.266,1.266,0,0,0,0,1.266V8.076a1.266,1.266,0,0,0,2.531,0V1.264A1.266,1.266,0,0,0,1.266,0Z" transform="translate(0 0)" fill="#633001"/>
      </g>
      <path id="Path_21" data-name="Path 21" d="M333.518,240.887a9.425,9.425,0,1,1,7.587-10.96,9.425,9.425,0,0,1-7.587,10.96ZM331.248,228.4a3.259,3.259,0,1,0,2.444.525,3.262,3.262,0,0,0-2.444-.525Z" transform="translate(-322.406 -218.249)" fill="#633001"/>
      <path id="Path_22" data-name="Path 22" d="M327.31,232.184a7.4,7.4,0,0,0,1.871,10.294,5.822,5.822,0,0,0,8.1-1.473,4.564,4.564,0,0,0-1.153-6.343,3.525,3.525,0,0,0-2.656-.574,3.579,3.579,0,0,0-1.02.352,3.26,3.26,0,0,0-.751,5.95,3.108,3.108,0,0,1-.37-.216,3.712,3.712,0,0,1-.939-5.165,4.518,4.518,0,0,1,6.287-1.143,5.535,5.535,0,0,1,1.4,7.691,6.787,6.787,0,0,1-9.445,1.718,8.364,8.364,0,0,1-2.116-11.638,10.3,10.3,0,0,1,2.01-2.16,9.45,9.45,0,0,1,5.684-1.286A9.355,9.355,0,0,0,327.31,232.184Z" transform="translate(-323.92 -224.209)" fill="#411f00"/>
      <path id="Path_24" data-name="Path 24" d="M326.178,235.077a9.424,9.424,0,1,1,15.29,11C340.755,242.022,337.86,233.618,326.178,235.077Z" transform="translate(-324.585 -226.949)" fill="#414042" opacity="0.1"/>
      <path id="Path_25" data-name="Path 25" d="M335.972,230.473c.742-1.117-1.591-2.326-3.923-3.876s-3.776-2.853-4.519-1.736.544,3.28,2.875,4.829S335.229,231.591,335.972,230.473Z" transform="translate(-325.245 -209.287)" fill="#fff" opacity="0.3"/>
      <path id="Path_26" data-name="Path 26" d="M327.873,243.439a1.424,1.424,0,1,0-1.32,1.519,1.424,1.424,0,0,0,1.32-1.519Z" transform="translate(-323.92 -230.589)" fill="#fff" opacity="0.3"/>
      <ellipse id="Ellipse_18" data-name="Ellipse 18" cx="0.844" cy="1.266" rx="0.844" ry="1.266" transform="translate(11.813 5.906)" fill="#fff"/>
      <ellipse id="Ellipse_19" data-name="Ellipse 19" cx="0.844" cy="1.266" rx="0.844" ry="1.266" transform="translate(5.063 6.75)" fill="#fff"/>
    </g>
  </g>
</svg>
