<svg xmlns="http://www.w3.org/2000/svg" width="229.841" height="229.84" viewBox="0 0 229.841 229.84">
  <g id="ticket-bg" transform="translate(-0.001 -0.018)" opacity="0.15">
    <path id="Path_387" data-name="Path 387" d="M213.14,76.148a6.72,6.72,0,0,1,.755,8.614A524.629,524.629,0,0,1,88.7,211.067L84.866,213.8a7.079,7.079,0,0,1-9.113-.758L58.468,195.761A26.986,26.986,0,1,0,20.3,157.6l-15.9-15.9a6.918,6.918,0,0,1,.873-10.518l3.845-2.738A511.946,511.946,0,0,0,131.285,5.193,6.576,6.576,0,0,1,141.3,4.316l16.178,16.178a26.986,26.986,0,1,0,38.164,38.164l17.491,17.491Z" transform="translate(6.174 6.178)" fill="#dbcdf9"/>
    <path id="Path_388" data-name="Path 388" d="M217.575,35.42,155.79,113.653,75.88,174.147,60.51,158.666l-5.545-6.72,5.545-8.025L62.45,135.9l-1.071-8.553L58.17,119.32,52.823,112.9,46.4,108.625l-6.954-2.138H30.9L21.807,109.7l-5.347,4.815L3.623,99,24.5,95.886a381.928,381.928,0,0,0,177.711-75.94l15.37,15.481Z" transform="translate(9.393 51.686)" fill="#e7aeff"/>
    <g id="Group_278" data-name="Group 278" transform="translate(0.001 0.018)">
      <path id="Path_389" data-name="Path 389" d="M56.84,202.691a8.553,8.553,0,0,1,2.519-6.055l.029-.029a18.435,18.435,0,0,0-26.064-26.064l-.029.029a8.553,8.553,0,0,1-12.114.014L4.524,153.933a15.488,15.488,0,0,1,1.959-23.538l3.845-2.738,4.97,6.972-3.845,2.738a6.908,6.908,0,0,0-.873,10.518l16.649,16.649.036-.036a26.987,26.987,0,0,1,38.207,38.125l-.083.083,16.523,16.523a7.079,7.079,0,0,0,9.113.758l3.838-2.738a524.628,524.628,0,0,0,125.19-126.3,6.72,6.72,0,0,0-.755-8.614L201.942,64.973l-.381.381A26.988,26.988,0,1,1,163.4,27.186l.381-.38L147.47,10.49a6.576,6.576,0,0,0-10.019.877A511.945,511.945,0,0,1,15.294,134.621l-4.97-6.972A503.391,503.391,0,0,0,130.448,6.466a15.129,15.129,0,0,1,23.082-2.023l16.315,16.315a8.553,8.553,0,0,1-.061,12.161l-.133.133a18.435,18.435,0,0,0,26.064,26.064l.133-.133a8.553,8.553,0,0,1,12.161-.061l17.357,17.357a15.282,15.282,0,0,1,1.714,19.571A533.183,533.183,0,0,1,99.848,224.213l-3.838,2.738a15.632,15.632,0,0,1-20.135-1.675L59.352,208.753a8.553,8.553,0,0,1-2.5-6.059Z" transform="translate(-0.001 -0.018)" fill="#633001" fill-rule="evenodd"/>
      <path id="Path_390" data-name="Path 390" d="M37.262,12.158l3.78,3.78a4.279,4.279,0,0,1-6.052,6.052l-3.78-3.78a4.279,4.279,0,0,1,6.052-6.052Z" transform="translate(77.692 28.217)" fill="#633001"/>
      <path id="Path_391" data-name="Path 391" d="M37.262,12.158l3.78,3.78a4.279,4.279,0,0,1-6.052,6.052l-3.78-3.78a4.279,4.279,0,0,1,6.052-6.052Z" transform="translate(93.576 44.105)" fill="#633001"/>
      <path id="Path_392" data-name="Path 392" d="M50.432,31.378a4.276,4.276,0,0,1-6.052,0l-4.539-4.539a4.279,4.279,0,0,1,6.052-6.052l4.539,4.539a4.276,4.276,0,0,1,0,6.052Z" transform="translate(100.077 50.6)" fill="#633001"/>
      <path id="Path_393" data-name="Path 393" d="M50.432,31.378a4.276,4.276,0,0,1-6.052,0l-4.539-4.539a4.279,4.279,0,0,1,6.052-6.052l4.539,4.539a4.276,4.276,0,0,1,0,6.052Z" transform="translate(115.961 66.484)" fill="#633001"/>
      <path id="Path_394" data-name="Path 394" d="M54.732,29.631l3.78,3.78a4.279,4.279,0,0,1-6.052,6.052l-3.78-3.784a4.279,4.279,0,0,1,6.052-6.052Z" transform="translate(123.002 73.528)" fill="#633001" fill-rule="evenodd"/>
      <path id="Path_395" data-name="Path 395" d="M37.262,12.158l3.78,3.78a4.279,4.279,0,0,1-6.052,6.052l-3.78-3.78a4.279,4.279,0,0,1,6.052-6.052Z" transform="translate(156.356 106.885)" fill="#633001"/>
    </g>
    <g id="Group_279" data-name="Group 279" transform="translate(97.152 117.212)">
      <ellipse id="Ellipse_20" data-name="Ellipse 20" cx="5.146" cy="7.485" rx="5.146" ry="7.485" transform="translate(0 26.466) rotate(-45)" fill="#dbcdf9"/>
      <ellipse id="Ellipse_21" data-name="Ellipse 21" cx="5.146" cy="7.485" rx="5.146" ry="7.485" transform="translate(19.188 7.278) rotate(-45)" fill="#dbcdf9"/>
    </g>
    <g id="sweetswap-logo" transform="translate(62.628 117.668) rotate(-40)">
      <g id="Group_27" data-name="Group 27" transform="translate(1.118 4.548) rotate(-30)">
        <path id="Path_20" data-name="Path 20" d="M4.548,0A4.548,4.548,0,0,0,0,4.548V29.023a4.548,4.548,0,0,0,9.1,0V4.542A4.548,4.548,0,0,0,4.548,0Z" transform="translate(0 0)" fill="#633001"/>
      </g>
      <g id="Group_27-2" data-name="Group 27" transform="translate(51.257 0) rotate(30)">
        <path id="Path_20-2" data-name="Path 20" d="M4.548,0A4.548,4.548,0,0,0,0,4.548V29.023a4.548,4.548,0,0,0,9.1,0V4.542A4.548,4.548,0,0,0,4.548,0Z" transform="translate(0 0)" fill="#633001"/>
      </g>
      <path id="Path_21" data-name="Path 21" d="M39.932,67.2A33.869,33.869,0,1,1,67.2,27.813,33.869,33.869,0,0,1,39.932,67.2ZM31.772,22.34a11.711,11.711,0,1,0,8.782,1.886,11.722,11.722,0,0,0-8.782-1.886Z" transform="translate(0 14.155)" fill="#633001"/>
      <path id="Path_22" data-name="Path 22" d="M8.2,14.492a26.583,26.583,0,0,0,6.725,36.992,20.922,20.922,0,0,0,29.109-5.294,16.4,16.4,0,0,0-4.145-22.8,12.667,12.667,0,0,0-9.545-2.062A12.864,12.864,0,0,0,26.675,22.6a11.716,11.716,0,0,0-2.7,21.383,11.169,11.169,0,0,1-1.328-.776,13.341,13.341,0,0,1-3.375-18.56,16.237,16.237,0,0,1,22.592-4.109,19.891,19.891,0,0,1,5.027,27.638,24.39,24.39,0,0,1-33.942,6.173,30.058,30.058,0,0,1-7.6-41.822,37,37,0,0,1,7.223-7.762A33.959,33.959,0,0,1,33,.141,33.617,33.617,0,0,0,8.2,14.492Z" transform="translate(3.988 14.169)" fill="#411f00"/>
      <path id="Path_24" data-name="Path 24" d="M0,15.132A33.866,33.866,0,1,1,54.948,54.653C52.383,40.09,41.98,9.89,0,15.132Z" transform="translate(5.724 14.077)" fill="#414042" opacity="0.1"/>
      <path id="Path_25" data-name="Path 25" d="M31.093,21.672c2.668-4.015-5.719-8.36-14.1-13.93S3.428-2.509.757,1.505,2.712,13.291,11.09,18.858,28.425,25.689,31.093,21.672Z" transform="translate(7.456 54.463)" fill="#fff" opacity="0.3"/>
      <path id="Path_26" data-name="Path 26" d="M10.224,4.766a5.118,5.118,0,1,0-4.742,5.458,5.118,5.118,0,0,0,4.742-5.458Z" transform="translate(3.983 41.411)" fill="#fff" opacity="0.3"/>
      <ellipse id="Ellipse_18" data-name="Ellipse 18" cx="3.032" cy="4.548" rx="3.032" ry="4.548" transform="translate(42.45 21.225)" fill="#fff"/>
      <ellipse id="Ellipse_19" data-name="Ellipse 19" cx="3.032" cy="4.548" rx="3.032" ry="4.548" transform="translate(18.193 24.257)" fill="#fff"/>
    </g>
  </g>
</svg>
